<?xml version="1.0" encoding="utf-8"?>
<!-- Generator: Adobe Illustrator 16.0.4, SVG Export Plug-In . SVG Version: 6.00 Build 0)  -->
<!DOCTYPE svg PUBLIC "-//W3C//DTD SVG 1.0//EN" "http://www.w3.org/TR/2001/REC-SVG-20010904/DTD/svg10.dtd">
<svg version="1.0" id="Layer_1" xmlns="http://www.w3.org/2000/svg" xmlns:xlink="http://www.w3.org/1999/xlink" x="0px" y="0px"
	 width="321.75px" height="50px" viewBox="0 0 321.75 50" enable-background="new 0 0 321.75 50" xml:space="preserve">
<g>
	<g>
		<g>
			<path fill="#333333" d="M20.062,2.628H5.098l10.867,2.037c3.327,0.63,6.226,2.521,8.319,5.039
				c2.089,2.521,3.414,5.718,3.419,9.105v24.895h4.714V14.983C32.415,8.158,26.885,2.629,20.062,2.628z"/>
		</g>
		<polygon fill="#ACC200" points="41.079,43.658 51.02,43.658 32.599,27.172 46.415,15.29 36.473,15.29 22.657,27.172 		"/>
		<polygon fill="#CCD960" points="51.02,43.658 60.961,43.658 42.54,27.172 56.356,15.29 46.415,15.29 32.599,27.172 		"/>
		<path fill="#6B95A8" d="M20.811,12.586c-1.488-1.798-3.539-3.088-5.677-3.484L5.098,7.221v33.052l18.092,3.432V18.81
			C23.194,16.634,22.304,14.38,20.811,12.586z"/>
		<path fill="#FFFFFF" d="M24.284,9.704c-2.093-2.518-4.992-4.409-8.319-5.039L5.098,2.628v4.593l10.036,1.881
			c2.138,0.396,4.188,1.686,5.677,3.484c1.493,1.794,2.384,4.048,2.379,6.224v24.895h4.513V18.81
			C27.697,15.422,26.373,12.226,24.284,9.704z"/>
		<path fill="#333333" d="M5.098,40.273"/>
		<circle fill="#FFFFFF" cx="18.783" cy="27.171" r="2.738"/>
	</g>
</g>
<g>
	<path fill="#FFFFFF" d="M80.695,43.039H65.802V11.731c0,0,11.713,0,14.893,0l0,0c2.603-0.009,4.938,1.288,6.51,3.19l0,0
		c1.577,1.898,2.5,4.432,2.5,7.163l0,0v10.593c0,2.738-0.923,5.269-2.5,7.166l0,0c-1.573,1.9-3.902,3.195-6.501,3.195l0,0
		C80.697,43.039,80.695,43.039,80.695,43.039L80.695,43.039z M72.315,36.136h2.621h5.76c0.57-0.01,1.109-0.261,1.625-0.858l0,0
		c0.5-0.6,0.875-1.514,0.872-2.6l0,0V22.085c0.003-1.075-0.373-1.997-0.872-2.593l0,0c-0.517-0.604-1.055-0.851-1.625-0.855l0,0
		c-3.18,0-5.754,0-5.76,0l0,0h-2.621V36.136L72.315,36.136z"/>
	<path fill="#FFFFFF" d="M106.494,17.579h-4.241c-5.4,0.005-9.771,4.638-9.771,10.36v4.738c0,5.725,4.371,10.359,9.771,10.361h4.241
		c5.399-0.002,9.769-4.637,9.771-10.361v-4.738C116.263,22.216,111.893,17.583,106.494,17.579z M109.751,32.678
		c-0.001,1.91-1.458,3.448-3.257,3.458h-4.241c-1.8-0.01-3.256-1.548-3.26-3.458v-4.738c0.004-1.908,1.46-3.452,3.26-3.458h4.241
		c1.799,0.008,3.255,1.551,3.257,3.458V32.678z"/>
	<path fill="#FFFFFF" d="M133.115,17.459h-4.243c-5.402,0.004-9.776,4.635-9.776,10.359v4.742c0,5.723,4.374,10.354,9.776,10.356
		h4.243c5.395-0.003,9.766-4.635,9.77-10.356v-4.742C142.88,22.094,138.51,17.464,133.115,17.459z M136.368,32.561
		c-0.003,1.91-1.458,3.446-3.253,3.455h-4.243c-1.801-0.009-3.255-1.545-3.26-3.455v-4.742c0.005-1.904,1.459-3.447,3.26-3.454
		h4.243c1.796,0.007,3.25,1.549,3.253,3.454V32.561z"/>
	<path fill="#FFFFFF" d="M198.594,42.915L198.594,42.915c-4.217-0.008-7.564-3.658-7.57-8.089l0,0c0,0,0-8.87,0-9.277l0,0
		c0.006-4.436,3.354-8.089,7.57-8.093l0,0c0,0,6.25,0,8.639,0l0,0c4.215,0.003,7.564,3.657,7.57,8.093l0,0c0,0,0,1.035,0,2.319l0,0
		c-0.015,1.808-1.003,3.003-1.742,3.606l0,0c-0.778,0.647-1.555,0.996-2.383,1.306l0,0c-1.645,0.573-3.543,0.851-5.64,0.854l0,0
		h-7.504v1.191c0.001,0.688,0.508,1.181,1.06,1.181l0,0c2.387,0,16.209,0.005,16.209,0.005v6.903
		C214.803,42.915,200.979,42.915,198.594,42.915z M205.038,28.003c1.278,0.035,2.502-0.198,3.254-0.41l0,0
		c0-0.473,0-2.044,0.003-2.044l0,0c-0.003-0.688-0.514-1.185-1.062-1.189l0,0c-2.389,0-8.639,0-8.639,0
		c-0.552,0.004-1.059,0.496-1.06,1.189l0,0c0,0.408,0,2.07,0,2.454l0,0H205.038L205.038,28.003z M225.498,42.915L225.498,42.915
		c-4.219-0.008-7.564-3.658-7.571-8.089l0,0c0,0,0-8.87,0-9.277l0,0c0.007-4.436,3.354-8.089,7.571-8.093l0,0c0,0,6.25,0,8.639,0
		l0,0c4.213,0.003,7.564,3.657,7.57,8.093l0,0c0,0,0,1.035,0,2.319l0,0c-0.016,1.808-1.004,3.003-1.743,3.606l0,0
		c-0.778,0.647-1.554,0.996-2.382,1.306l0,0c-1.645,0.573-3.543,0.851-5.641,0.854l0,0h-7.504v1.191
		c0,0.688,0.508,1.181,1.061,1.181l0,0c2.386,0,16.209,0.005,16.209,0.005v6.903C241.707,42.915,227.884,42.915,225.498,42.915z
		 M231.941,28.003c1.277,0.035,2.502-0.198,3.254-0.41l0,0c0-0.473,0-2.044,0.004-2.044l0,0c-0.004-0.688-0.514-1.185-1.062-1.189
		l0,0c-2.389,0-8.639,0-8.639,0c-0.553,0.004-1.061,0.496-1.061,1.189l0,0c0,0.408,0,2.07,0,2.454l0,0H231.941L231.941,28.003z"/>
	<path fill="#FFFFFF" d="M279.3,42.915L279.3,42.915c-4.217-0.008-7.563-3.658-7.569-8.089l0,0c0,0,0-8.87,0-9.277l0,0
		c0.006-4.436,3.354-8.089,7.569-8.093l0,0c0,0,6.25,0,8.64,0l0,0c4.213,0.003,7.564,3.657,7.569,8.093l0,0c0,0,0,1.035,0,2.319l0,0
		c-0.014,1.808-1.003,3.003-1.741,3.606l0,0c-0.779,0.647-1.556,0.996-2.383,1.306l0,0c-1.645,0.573-3.543,0.851-5.641,0.854l0,0
		h-7.504v1.191c0.001,0.688,0.508,1.181,1.06,1.181l0,0c2.388,0,16.209,0.005,16.209,0.005v6.903
		C295.509,42.915,281.688,42.915,279.3,42.915z M285.744,28.003c1.277,0.035,2.502-0.198,3.254-0.41l0,0
		c0-0.473,0-2.044,0.004-2.044l0,0c-0.004-0.688-0.514-1.185-1.062-1.189l0,0c-2.39,0-8.64,0-8.64,0
		c-0.552,0.004-1.059,0.496-1.06,1.189l0,0c0,0.408,0,2.07,0,2.454l0,0H285.744L285.744,28.003z"/>
	<path fill="#FFFFFF" d="M259.123,17.456h-4.244c-5.396,0-9.77,4.629-9.773,10.354l0.002,21.151h6.514v-6.048h7.503
		c5.396-0.008,9.767-4.639,9.771-10.362v-4.741C268.889,22.085,264.52,17.456,259.123,17.456z M262.373,32.553
		c0,1.911-1.458,3.452-3.25,3.454h-7.503v-8.196c0.003-1.906,1.46-3.446,3.259-3.451h4.244c1.792,0.004,3.25,1.544,3.25,3.451
		V32.553z"/>
	<path fill="#FFFFFF" d="M145.724,42.794V27.691c0-5.723,4.369-10.36,9.764-10.36l0,0h8.349v6.91h-8.349
		c-1.794,0-3.253,1.545-3.256,3.45l0,0l0.003,15.103H145.724L145.724,42.794z"/>
	<path fill="#FFFFFF" d="M298.629,42.794V27.691c0-5.723,4.372-10.36,9.771-10.364l0,0h5.084l3.262,0.004v6.906h-8.346
		c-1.797,0.004-3.257,1.549-3.257,3.455l0,0v15.103H298.629L298.629,42.794z"/>
	<path fill="#FFFFFF" d="M178.712,30.105c-0.028-0.015-0.054-0.031-0.08-0.043c0.026-0.013,0.052-0.028,0.08-0.041l12.037-12.266
		h-9.604c0,0-6.91,7.462-7.689,8.488c-0.014,0.015-0.02,0.036-0.029,0.049V11.415h-6.516v31.379h6.516v-8.966
		c0.01,0.017,0.018,0.033,0.029,0.047c0.773,1.033,8.412,8.919,8.412,8.919h9.214L178.712,30.105z"/>
</g>
</svg>
