<?xml version="1.0" encoding="utf-8"?>
<!-- Generator: Adobe Illustrator 16.0.4, SVG Export Plug-In . SVG Version: 6.00 Build 0)  -->
<!DOCTYPE svg PUBLIC "-//W3C//DTD SVG 1.0//EN" "http://www.w3.org/TR/2001/REC-SVG-20010904/DTD/svg10.dtd">
<svg version="1.0" id="レイヤー_1" xmlns="http://www.w3.org/2000/svg" xmlns:xlink="http://www.w3.org/1999/xlink" x="0px"
	 y="0px" width="528.087px" height="132.785px" viewBox="0 0 528.087 132.785" enable-background="new 0 0 528.087 132.785"
	 xml:space="preserve">
<g>
	<path fill="#828282" d="M0,0.771c80.929,38.845,168.498,66.975,257.65,82.664c89.141,15.748,181.049,19.268,270.383,10.441
		c0.019-0.271,0.034-0.54,0.054-0.812c-89.585,8.879-181.463,5.37-270.313-10.327C168.912,67.1,81.373,38.974,0.248,0
		C0.229-0.01,0,0.771,0,0.771z"/>
	<g>
		<g>
			<path fill="#D80A30" d="M49.137,20.294c-10.66,8.707-21.545,17.252-32.656,25.625c-1.105-13.787-1.991-27.543-2.662-41.264
				C25.468,10.095,37.247,15.315,49.137,20.294z"/>
		</g>
		<g>
			<path fill="#ED731F" d="M89.188,36.054c-10.281,9.162-20.795,18.177-31.534,27.025c-1.74-13.731-3.248-27.443-4.541-41.125
				C65.028,26.886,77.056,31.594,89.188,36.054z"/>
		</g>
		<g>
			<path fill="#F9BF00" d="M129.983,50.063c-9.881,9.604-19.989,19.07-30.331,28.38c-2.372-13.648-4.506-27.285-6.411-40.904
				C105.392,41.955,117.642,46.131,129.983,50.063z"/>
		</g>
		<g>
			<path fill="#008238" d="M171.424,62.281c-9.452,10.027-19.13,19.93-29.049,29.688c-3-13.538-5.752-27.073-8.27-40.598
				C146.462,55.253,158.907,58.894,171.424,62.281z"/>
		</g>
		<g>
			<path fill="#6FC5C7" d="M213.411,72.678c-9,10.43-18.229,20.75-27.696,30.937c-3.617-13.396-6.982-26.8-10.107-40.207
				C188.138,66.749,200.746,69.839,213.411,72.678z"/>
		</g>
		<g>
			<path fill="#882E8C" d="M255.839,81.226c-8.525,10.818-17.281,21.531-26.275,32.129c-4.229-13.229-8.197-26.478-11.921-39.736
				C230.32,76.409,243.057,78.943,255.839,81.226z"/>
		</g>
		<g>
			<path fill="#D80A30" d="M298.601,87.893c-8.028,11.187-16.293,22.279-24.792,33.261c-4.826-13.033-9.389-26.094-13.7-39.174
				C272.9,84.207,285.734,86.181,298.601,87.893z"/>
		</g>
		<g>
			<path fill="#ED731F" d="M341.599,92.677c-7.522,11.527-15.272,22.973-23.252,34.326c-5.411-12.813-10.559-25.666-15.444-38.548
				C315.772,90.123,328.678,91.529,341.599,92.677z"/>
		</g>
		<g>
			<path fill="#F9BF00" d="M384.711,95.559c-6.992,11.85-14.209,23.624-21.656,35.322c-5.981-12.562-11.69-25.18-17.143-37.833
				C358.834,94.146,371.771,94.98,384.711,95.559z"/>
		</g>
		<g>
			<path fill="#008238" d="M427.839,96.54c-6.445,12.145-13.114,24.23-20.012,36.245c-6.534-12.288-12.796-24.64-18.795-37.044
				C401.973,96.267,414.917,96.532,427.839,96.54z"/>
		</g>
		<g>
			<path fill="#6FC5C7" d="M470.88,95.618c-5.89,12.419-12,24.785-18.33,37.093c-7.065-11.988-13.861-24.055-20.392-36.183
				C445.084,96.488,457.994,96.179,470.88,95.618z"/>
		</g>
		<g>
			<path fill="#882E8C" d="M513.721,92.8c-5.322,12.666-10.857,25.289-16.612,37.866c-7.578-11.667-14.885-23.419-21.924-35.248
				C488.064,94.805,500.914,93.928,513.721,92.8z"/>
		</g>
	</g>
</g>
</svg>
