<?xml version="1.0" standalone="no"?>
<!DOCTYPE svg PUBLIC "-//W3C//DTD SVG 20010904//EN"
 "http://www.w3.org/TR/2001/REC-SVG-20010904/DTD/svg10.dtd">
<svg version="1.0" xmlns="http://www.w3.org/2000/svg"
 width="16.000000pt" height="16.000000pt" viewBox="0 0 16.000000 16.000000"
 preserveAspectRatio="xMidYMid meet">
<metadata>
Created by potrace 1.11, written by Peter Selinger 2001-2013
</metadata>
<g transform="translate(0.000000,16.000000) scale(0.003125,-0.003125)"
fill="#000000" stroke="none">
<path d="M1671 4507 c-5 -12 -87 -179 -181 -372 -95 -192 -207 -422 -250 -510
-43 -88 -133 -272 -200 -410 -67 -137 -169 -344 -225 -460 -56 -115 -160 -327
-230 -470 -70 -143 -167 -341 -215 -440 -48 -99 -147 -301 -219 -449 -73 -148
-130 -269 -129 -271 2 -1 38 -18 80 -37 l77 -36 15 23 c9 14 16 26 16 28 0 3
68 143 151 313 83 170 184 377 224 459 86 177 267 547 428 875 142 290 320
654 442 905 51 105 159 324 239 489 80 164 146 302 146 306 0 7 -13 14 -108
56 l-53 24 -8 -23z"/>
<path d="M1870 4276 c-7 -17 -47 -101 -88 -186 -41 -85 -87 -182 -102 -215
-15 -33 -53 -114 -85 -180 -31 -66 -74 -156 -95 -200 -79 -167 -129 -274 -183
-386 -31 -64 -71 -150 -90 -190 -43 -91 -107 -227 -181 -383 -31 -65 -55 -120
-54 -121 3 -3 119 -37 204 -60 86 -24 493 -161 614 -208 406 -157 709 -320
885 -477 63 -56 221 -177 270 -207 206 -125 288 -171 444 -249 219 -109 310
-150 566 -255 191 -78 207 -81 200 -35 -2 12 -7 125 -10 251 -4 127 -8 262
-10 300 -1 39 -6 174 -9 300 l-7 230 108 92 c59 50 119 101 133 113 27 23 37
32 125 105 33 28 73 62 90 76 16 15 82 70 145 124 63 53 126 107 140 119 14
12 67 56 118 99 52 43 87 79 80 81 -366 118 -771 267 -947 348 -162 75 -221
104 -296 146 -44 24 -89 50 -100 56 -62 34 -188 133 -245 191 -134 139 -317
252 -630 392 -224 101 -515 211 -775 293 -88 28 -169 55 -181 60 -17 6 -22 2
-34 -24z"/>
</g>
</svg>
