<?xml version="1.0" encoding="utf-8"?>
<!-- Generator: Adobe Illustrator 16.0.4, SVG Export Plug-In . SVG Version: 6.00 Build 0)  -->
<!DOCTYPE svg PUBLIC "-//W3C//DTD SVG 1.0//EN" "http://www.w3.org/TR/2001/REC-SVG-20010904/DTD/svg10.dtd">
<svg version="1.0" id="レイヤー_1" xmlns="http://www.w3.org/2000/svg" xmlns:xlink="http://www.w3.org/1999/xlink" x="0px"
	 y="0px" width="300px" height="300px" viewBox="0 0 300 300" enable-background="new 0 0 300 300" xml:space="preserve">
<g>
	<path fill="#AAB2BC" d="M108.166,235.064c1.638,0.002,3.205-0.637,4.355-1.799L282.688,63.094L270.648,5.643L77.77,198.521
		c-2.393,2.395-2.393,6.291,0,8.684l26.059,26.061C104.98,234.426,106.548,235.066,108.166,235.064z"/>
	<path opacity="0.2" fill="#FFFFFF" enable-background="new    " d="M112.521,233.266L282.688,63.094L270.648,5.643L77.77,198.521
		c-2.393,2.395-2.393,6.291,0,8.684l26.059,26.061c1.151,1.162,2.719,1.801,4.337,1.799
		C109.804,235.066,111.37,234.426,112.521,233.266z"/>
	<g opacity="0.1">
		<path fill="#080808" d="M94.167,216.869L276.668,34.368l6.02,28.727L112.521,233.266L94.167,216.869z"/>
	</g>
	<path fill="#27276B" d="M50.088,294.266c1.621-0.002,3.187-0.648,4.337-1.801l50.573-50.555c1.152-1.15,1.8-2.717,1.799-4.346
		c0-1.631-0.647-3.195-1.799-4.346l-25.775-25.76c-2.394-2.402-6.281-2.402-8.675,0l-50.573,50.564
		c-2.393,2.393-2.393,6.279,0.001,8.684l25.757,25.758C46.884,293.617,48.451,294.266,50.088,294.266z"/>
	<path fill="#BCA11D" d="M122.22,258.232c-1.953,1.953-5.118,1.953-7.071,0L53.63,196.715c-1.953-1.953-1.953-5.119,0-7.072
		l6.364-6.363c1.953-1.953,5.119-1.953,7.071,0l61.518,61.518c1.953,1.953,1.953,5.119,0,7.072L122.22,258.232z"/>
	<g>
		<polygon fill="#BCA11D" points="70.071,242.383 58.584,223.354 77.613,234.84 89.1,253.869 		"/>
	</g>
	<g>
		<polygon fill="#BCA11D" points="54.985,256.051 43.125,237.396 61.779,249.254 73.64,267.91 		"/>
	</g>
	<g>
		<polygon fill="#BCA11D" points="42.116,268.924 30.583,249.941 49.564,261.473 61.098,280.457 		"/>
	</g>
</g>
<g>
	<path fill="#AAB2BC" d="M197.04,233.266l26.059-26.061c2.394-2.393,2.394-6.289,0.001-8.684L30.221,5.643L18.182,63.094
		l170.166,170.171c1.15,1.162,2.717,1.801,4.355,1.799C194.32,235.066,195.889,234.426,197.04,233.266z"/>
	<path opacity="0.2" fill="#FFFFFF" enable-background="new    " d="M192.703,235.064c1.617,0.002,3.186-0.637,4.337-1.799
		l26.059-26.061c2.394-2.393,2.394-6.289,0.001-8.684L30.221,5.643L18.182,63.094l170.166,170.171
		C189.499,234.426,191.064,235.066,192.703,235.064z"/>
	<g opacity="0.1">
		<path fill="#080808" d="M188.348,233.266L18.182,63.094l6.02-28.727l182.501,182.501L188.348,233.266z"/>
	</g>
	<path fill="#27276B" d="M255.136,292.465l25.757-25.758c2.395-2.404,2.395-6.291,0.001-8.684l-50.573-50.564
		c-2.394-2.402-6.281-2.402-8.675,0l-25.774,25.76c-1.152,1.15-1.8,2.715-1.8,4.346c-0.001,1.629,0.647,3.195,1.8,4.346
		l50.572,50.555c1.15,1.152,2.717,1.799,4.338,1.801C252.418,294.266,253.985,293.617,255.136,292.465z"/>
	<path fill="#BCA11D" d="M178.649,258.232c1.953,1.953,5.118,1.953,7.071,0l61.518-61.518c1.953-1.953,1.953-5.119,0-7.072
		l-6.363-6.363c-1.953-1.953-5.119-1.953-7.071,0l-61.519,61.518c-1.953,1.953-1.953,5.119,0,7.072L178.649,258.232z"/>
	<g>
		<polygon fill="#BCA11D" points="230.798,242.383 242.285,223.354 223.256,234.84 211.77,253.869 		"/>
	</g>
	<g>
		<polygon fill="#BCA11D" points="245.885,256.051 257.744,237.396 239.09,249.254 227.229,267.91 		"/>
	</g>
	<g>
		<polygon fill="#BCA11D" points="258.754,268.924 270.287,249.941 251.305,261.473 239.771,280.457 		"/>
	</g>
</g>
</svg>
