<?xml version="1.0" encoding="utf-8"?>
<!-- Generator: Adobe Illustrator 16.0.4, SVG Export Plug-In . SVG Version: 6.00 Build 0)  -->
<!DOCTYPE svg PUBLIC "-//W3C//DTD SVG 1.0//EN" "http://www.w3.org/TR/2001/REC-SVG-20010904/DTD/svg10.dtd">
<svg version="1.0" id="レイヤー_1" xmlns="http://www.w3.org/2000/svg" xmlns:xlink="http://www.w3.org/1999/xlink" x="0px"
	 y="0px" width="148px" height="124.832px" viewBox="0 0 148 124.832" enable-background="new 0 0 148 124.832"
	 xml:space="preserve">
<g>
	<path fill="#FFD464" d="M54,82.833c0,2.2-1.8,4-4,4H14c-2.2,0-4-1.8-4-4v-53c0-2.2,1.8-4,4-4h36c2.2,0,4,1.8,4,4V82.833z"/>
	<path fill="#FFD464" d="M62,65.833H50v-29h12c3.309,0,6,2.691,6,6v17C68,63.142,65.309,65.833,62,65.833z M54,61.833h8
		c1.104,0,2-0.896,2-2v-17c0-1.104-0.896-2-2-2h-8V61.833z"/>
	<g>
		<rect x="52" y="40.833" fill="#F2C95F" width="2" height="21"/>
		<path fill="#F2C95F" d="M62,36.833h-2c3.309,0,6,2.691,6,6v17c0,3.309-2.691,6-6,6h2c3.309,0,6-2.691,6-6v-17
			C68,39.524,65.309,36.833,62,36.833z"/>
	</g>
	<path fill="#F2C95F" d="M50,25.833h-3c2.2,0,4,1.8,4,4v53c0,2.2-1.8,4-4,4h3c2.2,0,4-1.8,4-4v-53C54,27.633,52.2,25.833,50,25.833z
		"/>
	<g>
		<path fill="#CC803D" d="M16,68.833c-1.104,0-2-0.896-2-2v-27c0-1.104,0.896-2,2-2s2,0.896,2,2v27
			C18,67.937,17.104,68.833,16,68.833z"/>
		<path fill="#CC803D" d="M24,68.833c-1.104,0-2-0.896-2-2v-27c0-1.104,0.896-2,2-2s2,0.896,2,2v27
			C26,67.937,25.104,68.833,24,68.833z"/>
		<path fill="#CC803D" d="M48,68.833c-1.104,0-2-0.896-2-2v-27c0-1.104,0.896-2,2-2s2,0.896,2,2v27
			C50,67.937,49.104,68.833,48,68.833z"/>
		<path fill="#CC803D" d="M32,68.833c-1.104,0-2-0.896-2-2v-27c0-1.104,0.896-2,2-2s2,0.896,2,2v27
			C34,67.937,33.104,68.833,32,68.833z"/>
		<path fill="#CC803D" d="M40,68.833c-1.104,0-2-0.896-2-2v-27c0-1.104,0.896-2,2-2s2,0.896,2,2v27
			C42,67.937,41.104,68.833,40,68.833z"/>
	</g>
	<path fill="#F5F5F5" d="M10,28.833H5v29.041c-2.762,0-5,2.238-5,5s2.238,5,5,5s5-2.238,5-5c0-0.014-0.004-0.027-0.004-0.041H10
		V28.833z"/>
	<path fill="#E6E6E6" d="M10,28.833H8v34H7.996C7.996,62.847,8,62.86,8,62.874c0,2.419-1.718,4.436-4,4.898
		c0.323,0.064,0.657,0.102,1,0.102c2.762,0,5-2.238,5-5c0-0.014-0.004-0.027-0.004-0.041H10V28.833z"/>
	<path fill="#F5F5F5" d="M46.167,7c-0.122,0-0.24,0.015-0.36,0.019C43.598,2.847,39.217,0,34.167,0
		c-4.769,0-8.932,2.544-11.242,6.34C21.184,5.49,19.236,5,17.167,5C10.824,5,5.53,9.487,4.281,15.459
		c-2.319,1.774-3.822,4.563-3.822,7.708c0,5.361,4.347,9.708,9.708,9.708c2.003,0,3.863-0.606,5.408-1.646
		c0.522,0.062,1.052,0.104,1.592,0.104c0.518,0,1.025-0.037,1.527-0.098c2.29,1.931,5.244,3.098,8.473,3.098
		c3.994,0,7.563-1.785,9.979-4.593c2.355,2.222,5.523,3.593,9.021,3.593c7.271,0,13.167-5.896,13.167-13.167
		C59.334,12.895,53.438,7,46.167,7z"/>
	<g>
		<path fill="#E6E6E6" d="M46.167,7c-0.122,0-0.24,0.015-0.36,0.019C43.598,2.847,39.217,0,34.167,0
			c-0.679,0-1.344,0.058-1.994,0.156c4.188,0.642,7.724,3.254,9.634,6.862c0.12-0.004,0.238-0.02,0.36-0.02
			c7.271,0,13.167,5.896,13.167,13.167c0,6.59-4.848,12.034-11.168,12.999c0.652,0.103,1.318,0.168,2.001,0.168
			c7.271,0,13.167-5.896,13.167-13.167C59.334,12.894,53.438,7,46.167,7z"/>
		<path fill="#E6E6E6" d="M18.925,6.34c0.229-0.373,0.479-0.729,0.739-1.077C18.852,5.103,18.023,5,17.167,5
			c-0.694,0-1.374,0.063-2.04,0.167C16.468,5.372,17.747,5.765,18.925,6.34z"/>
		<path fill="#E6E6E6" d="M34.92,28.052c-2.008,2.334-6.593,5.633-9.777,6.116c0.661,0.103,1.335,0.166,2.024,0.166
			c4.083,0,7.989-2.017,9.989-4.595C36.354,29.252,35.6,28.692,34.92,28.052z"/>
	</g>
</g>
<g>
	<path fill="#FFD464" d="M94,101.833c0,2.199-1.8,4-4,4H54c-2.2,0-4-1.801-4-4v-53c0-2.201,1.8-4,4-4h36c2.2,0,4,1.799,4,4V101.833z
		"/>
	<path fill="#FFD464" d="M102,84.833H90v-29h12c3.309,0,6,2.689,6,6v17C108,82.142,105.309,84.833,102,84.833z M94,80.833h8
		c1.104,0,2-0.896,2-2v-17c0-1.104-0.896-2-2-2h-8V80.833z"/>
	<g>
		<rect x="92" y="59.833" fill="#F2C95F" width="2" height="21"/>
		<path fill="#F2C95F" d="M102,55.833h-2c3.309,0,6,2.689,6,6v17c0,3.309-2.691,6-6,6h2c3.309,0,6-2.691,6-6v-17
			C108,58.522,105.309,55.833,102,55.833z"/>
	</g>
	<path fill="#F2C95F" d="M90,44.833h-3c2.2,0,4,1.799,4,4v53c0,2.199-1.8,4-4,4h3c2.2,0,4-1.801,4-4v-53
		C94,46.632,92.2,44.833,90,44.833z"/>
	<g>
		<path fill="#CC803D" d="M56,87.833c-1.104,0-2-0.896-2-2v-27c0-1.105,0.896-2,2-2s2,0.895,2,2v27
			C58,86.937,57.104,87.833,56,87.833z"/>
		<path fill="#CC803D" d="M64,87.833c-1.104,0-2-0.896-2-2v-27c0-1.105,0.896-2,2-2s2,0.895,2,2v27
			C66,86.937,65.104,87.833,64,87.833z"/>
		<path fill="#CC803D" d="M88,87.833c-1.104,0-2-0.896-2-2v-27c0-1.105,0.896-2,2-2s2,0.895,2,2v27
			C90,86.937,89.104,87.833,88,87.833z"/>
		<path fill="#CC803D" d="M72,87.833c-1.104,0-2-0.896-2-2v-27c0-1.105,0.896-2,2-2s2,0.895,2,2v27
			C74,86.937,73.104,87.833,72,87.833z"/>
		<path fill="#CC803D" d="M80,87.833c-1.104,0-2-0.896-2-2v-27c0-1.105,0.896-2,2-2s2,0.895,2,2v27
			C82,86.937,81.104,87.833,80,87.833z"/>
	</g>
	<path fill="#F5F5F5" d="M50,47.833h-5v29.041c-2.762,0-5,2.238-5,5s2.238,5,5,5s5-2.238,5-5c0-0.014-0.004-0.027-0.004-0.041H50
		V47.833z"/>
	<path fill="#E6E6E6" d="M50,47.833h-2v34h-0.004c0,0.014,0.004,0.027,0.004,0.041c0,2.418-1.718,4.436-4,4.898
		c0.323,0.064,0.657,0.102,1,0.102c2.762,0,5-2.238,5-5c0-0.014-0.004-0.027-0.004-0.041H50V47.833z"/>
	<path fill="#F5F5F5" d="M86.167,25.999c-0.122,0-0.24,0.016-0.36,0.02C83.598,21.847,79.217,19,74.167,19
		c-4.769,0-8.933,2.544-11.242,6.339c-1.741-0.85-3.688-1.34-5.758-1.34c-6.343,0-11.638,4.486-12.886,10.459
		c-2.319,1.773-3.822,4.562-3.822,7.709c0,5.359,4.348,9.707,9.708,9.707c2.003,0,3.862-0.605,5.408-1.646
		c0.522,0.064,1.052,0.105,1.592,0.105c0.519,0,1.024-0.037,1.526-0.098c2.291,1.93,5.244,3.098,8.474,3.098
		c3.994,0,7.563-1.785,9.979-4.594c2.355,2.223,5.523,3.594,9.021,3.594c7.271,0,13.167-5.896,13.167-13.168
		S93.438,25.999,86.167,25.999z"/>
	<g>
		<path fill="#E6E6E6" d="M86.167,25.999c-0.122,0-0.24,0.016-0.36,0.02C83.598,21.847,79.217,19,74.167,19
			c-0.679,0-1.344,0.059-1.994,0.156c4.188,0.642,7.724,3.254,9.634,6.861c0.12-0.004,0.238-0.02,0.36-0.02
			c7.271,0,13.167,5.896,13.167,13.168c0,6.59-4.848,12.033-11.168,12.998c0.652,0.102,1.318,0.168,2.001,0.168
			c7.271,0,13.167-5.896,13.167-13.166C99.334,31.894,93.438,25.999,86.167,25.999z"/>
		<path fill="#E6E6E6" d="M58.925,25.339c0.229-0.373,0.479-0.729,0.739-1.076c-0.812-0.16-1.641-0.264-2.497-0.264
			c-0.694,0-1.374,0.062-2.04,0.168C56.468,24.372,57.747,24.765,58.925,25.339z"/>
		<path fill="#E6E6E6" d="M74.92,47.052c-2.008,2.334-6.593,5.633-9.777,6.115c0.662,0.104,1.336,0.166,2.024,0.166
			c4.083,0,7.989-2.018,9.989-4.594C76.354,48.251,75.6,47.69,74.92,47.052z"/>
	</g>
</g>
<g>
	<path fill="#FFD464" d="M134,120.832c0,2.2-1.8,4-4,4H94c-2.2,0-4-1.8-4-4v-53c0-2.2,1.8-4,4-4h36c2.2,0,4,1.8,4,4V120.832z"/>
	<path fill="#FFD464" d="M142,103.832h-12v-29h12c3.309,0,6,2.69,6,6v17C148,101.141,145.309,103.832,142,103.832z M134,99.832h8
		c1.104,0,2-0.896,2-2v-17c0-1.103-0.896-2-2-2h-8V99.832z"/>
	<g>
		<rect x="132" y="78.832" fill="#F2C95F" width="2" height="21"/>
		<path fill="#F2C95F" d="M142,74.832h-2c3.309,0,6,2.69,6,6v17c0,3.309-2.691,6-6,6h2c3.309,0,6-2.691,6-6v-17
			C148,77.522,145.309,74.832,142,74.832z"/>
	</g>
	<path fill="#F2C95F" d="M130,63.832h-3c2.2,0,4,1.8,4,4v53c0,2.2-1.8,4-4,4h3c2.2,0,4-1.8,4-4v-53
		C134,65.632,132.2,63.832,130,63.832z"/>
	<g>
		<path fill="#CC803D" d="M96,106.832c-1.104,0-2-0.896-2-2v-27c0-1.104,0.896-2,2-2s2,0.896,2,2v27
			C98,105.936,97.104,106.832,96,106.832z"/>
		<path fill="#CC803D" d="M104,106.832c-1.104,0-2-0.896-2-2v-27c0-1.104,0.896-2,2-2s2,0.896,2,2v27
			C106,105.936,105.104,106.832,104,106.832z"/>
		<path fill="#CC803D" d="M128,106.832c-1.104,0-2-0.896-2-2v-27c0-1.104,0.896-2,2-2s2,0.896,2,2v27
			C130,105.936,129.104,106.832,128,106.832z"/>
		<path fill="#CC803D" d="M112,106.832c-1.104,0-2-0.896-2-2v-27c0-1.104,0.896-2,2-2s2,0.896,2,2v27
			C114,105.936,113.104,106.832,112,106.832z"/>
		<path fill="#CC803D" d="M120,106.832c-1.104,0-2-0.896-2-2v-27c0-1.104,0.896-2,2-2s2,0.896,2,2v27
			C122,105.936,121.104,106.832,120,106.832z"/>
	</g>
	<path fill="#F5F5F5" d="M90,66.832h-5v29.041c-2.763,0-5,2.238-5,5s2.237,5,5,5s5-2.238,5-5c0-0.014-0.004-0.027-0.004-0.041H90
		V66.832z"/>
	<path fill="#E6E6E6" d="M90,66.832h-2v34h-0.004c0,0.014,0.004,0.027,0.004,0.041c0,2.419-1.718,4.436-4,4.898
		c0.323,0.064,0.657,0.102,1,0.102c2.763,0,5-2.238,5-5c0-0.014-0.004-0.027-0.004-0.041H90V66.832z"/>
	<path fill="#F5F5F5" d="M126.167,44.999c-0.122,0-0.24,0.016-0.36,0.02c-2.209-4.172-6.59-7.02-11.64-7.02
		c-4.77,0-8.932,2.544-11.242,6.34c-1.74-0.85-3.689-1.34-5.758-1.34c-6.343,0-11.637,4.486-12.887,10.459
		c-2.318,1.773-3.821,4.562-3.821,7.708c0,5.36,4.347,9.708,9.708,9.708c2.003,0,3.863-0.605,5.408-1.646
		c0.521,0.063,1.052,0.104,1.592,0.104c0.518,0,1.025-0.037,1.527-0.097c2.289,1.93,5.244,3.097,8.473,3.097
		c3.994,0,7.563-1.785,9.979-4.593c2.355,2.222,5.523,3.593,9.021,3.593c7.271,0,13.167-5.896,13.167-13.167
		S133.438,44.999,126.167,44.999z"/>
	<g>
		<path fill="#E6E6E6" d="M126.167,44.999c-0.122,0-0.24,0.016-0.36,0.02c-2.209-4.172-6.59-7.02-11.64-7.02
			c-0.68,0-1.344,0.059-1.994,0.156c4.188,0.642,7.724,3.254,9.634,6.861c0.12-0.004,0.238-0.02,0.36-0.02
			c7.271,0,13.167,5.896,13.167,13.167c0,6.59-4.848,12.034-11.168,12.999c0.652,0.102,1.318,0.168,2.001,0.168
			c7.271,0,13.167-5.896,13.167-13.167S133.438,44.999,126.167,44.999z"/>
		<path fill="#E6E6E6" d="M98.925,44.339c0.229-0.373,0.479-0.729,0.739-1.076c-0.812-0.16-1.642-0.264-2.497-0.264
			c-0.693,0-1.374,0.062-2.04,0.167C96.468,43.371,97.747,43.765,98.925,44.339z"/>
		<path fill="#E6E6E6" d="M114.92,66.051c-2.008,2.335-6.593,5.634-9.776,6.116c0.66,0.104,1.334,0.166,2.023,0.166
			c4.083,0,7.989-2.018,9.989-4.595C116.354,67.251,115.6,66.69,114.92,66.051z"/>
	</g>
</g>
</svg>
