<?xml version="1.0" encoding="utf-8"?>
<!-- Generator: Adobe Illustrator 16.0.4, SVG Export Plug-In . SVG Version: 6.00 Build 0)  -->
<!DOCTYPE svg PUBLIC "-//W3C//DTD SVG 1.0//EN" "http://www.w3.org/TR/2001/REC-SVG-20010904/DTD/svg10.dtd">
<svg version="1.0" id="レイヤー_1" xmlns="http://www.w3.org/2000/svg" xmlns:xlink="http://www.w3.org/1999/xlink" x="0px"
	 y="0px" width="874.903px" height="143.829px" viewBox="0 0 874.903 143.829" enable-background="new 0 0 874.903 143.829"
	 xml:space="preserve">
<polygon fill="#0E4572" points="10.189,125.388 10.412,81.399 52.532,69.696 52.548,105.76 72.551,93.062 72.28,60.396 
	91.376,69.976 91.347,90.754 97.654,90.754 97.708,55.549 116.462,55.549 116.224,90.754 119.719,90.874 119.974,59.589 
	131.383,59.589 131.383,86.139 137.268,86.139 137.252,60.626 149.033,60.741 151.831,25.236 153.74,63.049 159.623,63.049 
	159.623,83.831 175.619,83.711 175.158,49.543 186.448,49.41 186.788,83.276 198.452,80.368 198.436,48.043 220.808,48.043 
	220.808,76.549 232.512,77.316 232.833,82.674 237.28,82.674 237.28,69.976 259.637,69.976 259.637,84.015 261.522,84.015 
	263.717,91.909 271.404,91.909 271.404,63.049 291.185,63.035 291.407,89.153 308.556,89.181 308.574,87.363 327.881,87.363 
	327.881,74.303 339.663,74.362 339.649,92.713 347.629,92.827 347.884,27.265 363.182,27.265 363.166,97.695 374.947,97.683 
	374.917,61.898 384.362,61.898 384.327,44.579 397.829,44.579 398.306,73.051 412.138,73.051 411.663,34.99 422.631,34.99 
	422.631,0 464.262,0.352 464.262,34.815 492.137,41.891 492.137,67.485 516.084,78.124 516.366,98.36 527.831,98.36 527.831,92.814 
	551.805,73.092 551.805,8.382 591.87,8.382 591.87,78.638 616.725,78.638 616.725,57.52 651.241,77.243 651.241,65.543 
	676.657,65.543 676.657,77.243 683.881,77.243 683.881,85.061 689.776,85.061 689.776,81.144 695.577,81.144 695.577,17.511 
	712.092,17.511 712.092,51.396 722.635,51.396 722.635,27.054 734.233,27.054 747.233,38.671 747.233,95.938 753.032,95.938 
	753.032,85.282 774.118,85.282 774.118,28.008 786.946,28.008 799.948,39.78 799.948,60.939 816.29,60.939 816.29,72.631 
	822.086,67.306 832.366,67.306 832.366,84.983 844.43,84.983 845.604,114.702 867.75,123.441 874.903,123.441 874.903,143.829 
	0,143.829 0,129.521 "/>
</svg>
