<?xml version="1.0" encoding="utf-8"?>
<!-- Generator: Adobe Illustrator 16.0.4, SVG Export Plug-In . SVG Version: 6.00 Build 0)  -->
<!DOCTYPE svg PUBLIC "-//W3C//DTD SVG 1.0//EN" "http://www.w3.org/TR/2001/REC-SVG-20010904/DTD/svg10.dtd">
<svg version="1.0" id="レイヤー_1" xmlns="http://www.w3.org/2000/svg" xmlns:xlink="http://www.w3.org/1999/xlink" x="0px"
	 y="0px" width="536.179px" height="71.817px" viewBox="0 0 536.179 71.817" enable-background="new 0 0 536.179 71.817"
	 xml:space="preserve">
<g>
	<path fill="#828282" d="M0,0.808c86.445,24.203,177.567,36.698,268.089,36.668c90.521,0.03,181.645-12.464,268.09-36.668
		c-0.03-0.27-0.061-0.538-0.09-0.808c-86.682,24.301-177.773,36.798-268,36.768C177.864,36.798,86.771,24.3,0.11,0.006
		C0.089,0,0,0.808,0,0.808z"/>
	<g>
		<g>
			<path fill="#D80A30" d="M51.779,11.503c-8.986,10.426-18.221,20.731-27.71,30.906c-3.483-13.386-6.743-26.778-9.787-40.176
				C26.7,5.568,39.206,8.663,51.779,11.503z"/>
		</g>
		<g>
			<path fill="#ED731F" d="M93.958,20.068c-8.535,10.81-17.322,21.512-26.362,32.091c-4.099-13.221-7.964-26.462-11.613-39.712
				C68.574,15.236,81.237,17.782,93.958,20.068z"/>
		</g>
		<g>
			<path fill="#F9BF00" d="M136.566,26.78c-8.062,11.174-16.374,22.251-24.94,33.217c-4.706-13.028-9.175-26.088-13.417-39.17
				C110.941,23.065,123.731,25.052,136.566,26.78z"/>
		</g>
		<g>
			<path fill="#008238" d="M179.5,31.616c-7.566,11.517-15.379,22.95-23.452,34.282c-5.305-12.812-10.365-25.662-15.194-38.545
				C153.696,29.03,166.585,30.454,179.5,31.616z"/>
		</g>
		<g>
			<path fill="#6FC5C7" d="M222.655,34.564c-7.052,11.836-14.349,23.6-21.902,35.278c-5.89-12.565-11.533-25.183-16.938-37.842
				C196.736,33.114,209.689,33.969,222.655,34.564z"/>
		</g>
		<g>
			<path fill="#882E8C" d="M265.922,35.615c-6.517,12.134-13.281,24.206-20.298,36.202c-6.461-12.293-12.67-24.649-18.638-37.061
				C239.954,35.304,252.938,35.588,265.922,35.615z"/>
		</g>
		<g>
			<path fill="#D80A30" d="M309.193,34.757c-5.965,12.411-12.178,24.769-18.64,37.061c-7.018-11.996-13.778-24.068-20.296-36.202
				C283.242,35.588,296.224,35.304,309.193,34.757z"/>
		</g>
		<g>
			<path fill="#ED731F" d="M352.367,32.001c-5.406,12.659-11.051,25.276-16.938,37.842c-7.553-11.679-14.854-23.442-21.903-35.279
				C326.49,33.97,339.443,33.113,352.367,32.001z"/>
		</g>
		<g>
			<path fill="#F9BF00" d="M395.326,27.354c-4.828,12.883-9.891,25.732-15.193,38.545c-8.072-11.333-15.887-22.767-23.452-34.282
				C369.595,30.454,382.482,29.029,395.326,27.354z"/>
		</g>
		<g>
			<path fill="#008238" d="M437.968,20.829c-4.238,13.079-8.707,26.14-13.414,39.168c-8.568-10.966-16.88-22.042-24.941-33.217
				C412.448,25.052,425.242,23.064,437.968,20.829z"/>
		</g>
		<g>
			<path fill="#6FC5C7" d="M480.196,12.447c-3.646,13.252-7.514,26.491-11.611,39.712c-9.04-10.579-17.826-21.281-26.364-32.091
				C454.943,17.782,467.603,15.236,480.196,12.447z"/>
		</g>
		<g>
			<path fill="#882E8C" d="M521.897,2.233c-3.042,13.397-6.302,26.79-9.786,40.176c-9.488-10.175-18.726-20.479-27.711-30.906
				C496.977,8.663,509.479,5.568,521.897,2.233z"/>
		</g>
	</g>
</g>
</svg>
