<?xml version="1.0" encoding="utf-8"?>
<!-- Generator: Adobe Illustrator 16.0.4, SVG Export Plug-In . SVG Version: 6.00 Build 0)  -->
<!DOCTYPE svg PUBLIC "-//W3C//DTD SVG 1.0//EN" "http://www.w3.org/TR/2001/REC-SVG-20010904/DTD/svg10.dtd">
<svg version="1.0" id="レイヤー_1" xmlns="http://www.w3.org/2000/svg" xmlns:xlink="http://www.w3.org/1999/xlink" x="0px"
	 y="0px" width="528.069px" height="132.793px" viewBox="-9.345 45.331 528.069 132.793"
	 enable-background="new -9.345 45.331 528.069 132.793" xml:space="preserve">
<g>
	<path fill="#828282" d="M-9.309,139.219c89.334,8.824,181.242,5.305,270.385-10.443c89.151-15.689,176.721-43.817,257.648-82.665
		c-0.074-0.26-0.152-0.52-0.227-0.779c-81.146,38.982-168.684,67.108-257.545,82.747C172.104,143.775,80.224,147.285-9.34,138.41
		C-9.36,138.406-9.309,139.219-9.309,139.219z"/>
	<g>
		<g>
			<path fill="#D80A30" d="M43.542,140.76c-7.039,11.828-14.344,23.58-21.922,35.248c-5.755-12.578-11.291-25.201-16.616-37.865
				C17.813,139.269,30.667,140.146,43.542,140.76z"/>
		</g>
		<g>
			<path fill="#ED731F" d="M86.566,141.869c-6.527,12.127-13.322,24.193-20.389,36.182c-6.332-12.307-12.437-24.678-18.333-37.092
				C60.729,141.517,73.642,141.828,86.566,141.869z"/>
		</g>
		<g>
			<path fill="#F9BF00" d="M129.694,141.082c-5.999,12.404-12.261,24.756-18.794,37.043c-6.896-12.014-13.566-24.1-20.015-36.246
				C103.813,141.871,116.753,141.607,129.694,141.082z"/>
		</g>
		<g>
			<path fill="#008238" d="M172.814,138.386c-5.452,12.656-11.16,25.271-17.142,37.834c-7.449-11.695-14.665-23.473-21.657-35.32
				C146.954,140.322,159.895,139.486,172.814,138.386z"/>
		</g>
		<g>
			<path fill="#6FC5C7" d="M215.826,133.799c-4.889,12.879-10.033,25.732-15.443,38.543c-7.982-11.35-15.729-22.795-23.251-34.324
				C190.048,136.871,202.954,135.463,215.826,133.799z"/>
		</g>
		<g>
			<path fill="#882E8C" d="M258.618,127.32c-4.313,13.08-8.875,26.143-13.702,39.176c-8.498-10.984-16.759-22.076-24.792-33.262
				C232.991,131.521,245.826,129.547,258.618,127.32z"/>
		</g>
		<g>
			<path fill="#D80A30" d="M301.083,118.961c-3.718,13.258-7.692,26.506-11.921,39.734c-8.994-10.598-17.749-21.311-26.273-32.127
				C275.671,124.283,288.406,121.75,301.083,118.961z"/>
		</g>
		<g>
			<path fill="#ED731F" d="M343.123,108.75c-3.127,13.404-6.494,26.811-10.11,40.209c-9.466-10.191-18.699-20.508-27.696-30.941
				C317.98,115.181,330.589,112.088,343.123,108.75z"/>
		</g>
		<g>
			<path fill="#F9BF00" d="M384.621,96.713c-2.518,13.525-5.271,27.058-8.27,40.597c-9.918-9.76-19.599-19.662-29.049-29.689
				C359.822,104.235,372.264,100.593,384.621,96.713z"/>
		</g>
		<g>
			<path fill="#008238" d="M425.483,82.882c-1.903,13.616-4.036,27.254-6.409,40.903c-10.342-9.311-20.45-18.776-30.329-28.381
				C401.084,91.473,413.338,87.292,425.483,82.882z"/>
		</g>
		<g>
			<path fill="#6FC5C7" d="M465.613,67.295c-1.289,13.684-2.8,27.394-4.539,41.125c-10.738-8.849-21.25-17.862-31.537-27.026
				C441.672,76.934,453.695,72.229,465.613,67.295z"/>
		</g>
		<g>
			<path fill="#882E8C" d="M504.908,49.995c-0.67,13.722-1.555,27.478-2.66,41.266c-11.11-8.373-21.998-16.918-32.658-25.626
				C481.484,60.655,493.257,55.436,504.908,49.995z"/>
		</g>
	</g>
</g>
</svg>
