<?xml version="1.0" encoding="utf-8"?>
<!-- Generator: Adobe Illustrator 16.0.4, SVG Export Plug-In . SVG Version: 6.00 Build 0)  -->
<!DOCTYPE svg PUBLIC "-//W3C//DTD SVG 1.1//EN" "http://www.w3.org/Graphics/SVG/1.1/DTD/svg11.dtd">
<svg version="1.1" id="レイヤー_1" xmlns="http://www.w3.org/2000/svg" xmlns:xlink="http://www.w3.org/1999/xlink" x="0px"
	 y="0px" width="454.545px" height="61.932px" viewBox="0 0 454.545 61.932" enable-background="new 0 0 454.545 61.932"
	 xml:space="preserve">
<g>
	<path fill="#1469BF" d="M44.026,26.207H30.245c-0.128,0-0.224,0.048-0.287,0.144c-0.064,0.096-0.08,0.208-0.048,0.335
		c3.126,8.87,8.135,15.202,15.025,18.997c0.733,0.383,1.18,0.99,1.34,1.818c0.031,0.191,0.048,0.383,0.048,0.574
		c0,0.607-0.191,1.166-0.574,1.676c-0.639,0.797-1.42,1.34-2.345,1.627c-0.319,0.062-0.639,0.096-0.957,0.096
		c-0.606,0-1.196-0.16-1.771-0.479c-6.572-3.955-11.597-10.176-15.073-18.663c-0.032-0.063-0.088-0.096-0.167-0.096
		c-0.08,0-0.136,0.048-0.167,0.144c-2.775,8.199-7.864,14.451-15.265,18.757c-0.543,0.287-1.085,0.432-1.627,0.432
		c-0.319,0-0.622-0.033-0.909-0.096c-0.861-0.256-1.627-0.75-2.297-1.484c-0.415-0.479-0.622-1.02-0.622-1.627
		c0-0.127,0-0.238,0-0.334c0.096-0.766,0.479-1.34,1.148-1.723c7.72-4.275,12.633-10.814,14.738-19.62
		c0.031-0.127,0.007-0.239-0.072-0.335c-0.08-0.096-0.184-0.144-0.311-0.144H6.654c-0.83,0-1.54-0.294-2.129-0.885
		c-0.591-0.59-0.885-1.299-0.885-2.129c0-0.829,0.294-1.539,0.885-2.129c0.59-0.59,1.299-0.885,2.129-0.885h14.355
		c0.318,0,0.494-0.159,0.526-0.479c0.191-1.978,0.318-5.104,0.383-9.379c0.031-0.893,0.359-1.651,0.981-2.273
		s1.379-0.933,2.273-0.933c0.893,0,1.643,0.319,2.249,0.957c0.605,0.606,0.909,1.324,0.909,2.153c0,2.84-0.176,5.998-0.526,9.475
		c0,0.128,0.04,0.239,0.12,0.335c0.079,0.096,0.183,0.144,0.311,0.144h15.791c0.829,0,1.539,0.295,2.129,0.885
		c0.59,0.591,0.885,1.3,0.885,2.129c0,0.83-0.295,1.54-0.885,2.129C45.564,25.912,44.855,26.207,44.026,26.207z"/>
	<path fill="#1469BF" d="M61.396,25.441c0.701,0.383,1.132,0.974,1.292,1.771c0.063,0.224,0.096,0.431,0.096,0.622
		c0,0.543-0.16,1.053-0.479,1.531c-0.447,0.639-1.053,1.037-1.818,1.196c-0.224,0.032-0.447,0.048-0.67,0.048
		c-0.543,0-1.069-0.144-1.579-0.431c-1.181-0.733-2.616-1.547-4.307-2.44c-0.606-0.351-0.989-0.861-1.148-1.531
		c-0.064-0.191-0.096-0.383-0.096-0.574c0-0.479,0.159-0.909,0.479-1.292c0.446-0.638,1.036-1.053,1.771-1.244
		C55.223,23.033,55.494,23,55.75,23c0.479,0,0.94,0.096,1.388,0.287C58.732,24.053,60.152,24.771,61.396,25.441z M61.157,36.59
		c0.351-0.67,0.893-1.068,1.627-1.195c0.127-0.031,0.271-0.049,0.431-0.049c0.542,0,1.021,0.209,1.436,0.623
		c0.638,0.574,1.036,1.291,1.196,2.152c0.031,0.225,0.048,0.447,0.048,0.67c0,0.607-0.144,1.197-0.431,1.771
		c-1.755,3.35-3.637,6.715-5.646,10.096c-0.415,0.734-1.037,1.164-1.866,1.293c-0.16,0.031-0.335,0.047-0.526,0.047
		c-0.606,0-1.165-0.207-1.675-0.621c-0.702-0.543-1.117-1.262-1.244-2.154c0-0.191,0-0.365,0-0.525c0-0.67,0.191-1.309,0.574-1.914
		C57.185,43.529,59.21,40.131,61.157,36.59z M64.267,12.521c0.67,0.415,1.068,1.021,1.196,1.818c0,0.16,0,0.319,0,0.479
		c0,0.574-0.191,1.117-0.574,1.627c-0.479,0.606-1.117,0.974-1.914,1.101c-0.16,0.032-0.304,0.048-0.431,0.048
		c-0.639,0-1.213-0.191-1.723-0.574c-1.085-0.701-2.44-1.579-4.067-2.632c-0.606-0.351-0.974-0.877-1.101-1.579
		c0-0.159,0-0.303,0-0.431c0-0.51,0.175-0.988,0.526-1.436c0.479-0.605,1.101-0.973,1.866-1.101
		c0.223-0.063,0.431-0.096,0.622-0.096c0.542,0,1.053,0.144,1.531,0.431C61.699,11.006,63.054,11.788,64.267,12.521z M84.078,44.678
		c0,0.318,0.159,0.479,0.479,0.479h9.618c0.797,0,1.483,0.279,2.058,0.837c0.574,0.559,0.861,1.244,0.861,2.058
		s-0.287,1.508-0.861,2.082s-1.261,0.861-2.058,0.861H68c-0.798,0-1.476-0.287-2.034-0.861c-0.559-0.574-0.837-1.269-0.837-2.082
		s0.279-1.499,0.837-2.058c0.558-0.558,1.236-0.837,2.034-0.837h9.235c0.318,0,0.479-0.16,0.479-0.479v-26.08
		c0-0.318-0.16-0.479-0.479-0.479h-6.556c-0.83,0-1.524-0.287-2.082-0.861c-0.559-0.574-0.837-1.268-0.837-2.082
		s0.279-1.499,0.837-2.058c0.558-0.558,1.251-0.837,2.082-0.837h21.294c0.797,0,1.483,0.28,2.058,0.837
		c0.574,0.559,0.861,1.244,0.861,2.058s-0.287,1.507-0.861,2.082s-1.261,0.861-2.058,0.861h-7.417c-0.319,0-0.479,0.16-0.479,0.479
		V44.678z"/>
	<path fill="#1469BF" d="M137.097,18.885c1.148,0,2.129,0.407,2.943,1.22s1.22,1.794,1.22,2.943v14.547
		c0,0.797-0.287,1.482-0.861,2.057s-1.261,0.861-2.058,0.861h-0.191c-0.734,0-1.372-0.27-1.914-0.812
		c-0.543-0.543-0.813-1.18-0.813-1.914c0-0.223-0.112-0.336-0.335-0.336H112.31c-0.319,0-0.511,0.16-0.574,0.479
		c-0.83,5.297-2.568,9.555-5.216,12.777c-0.543,0.605-1.213,0.908-2.01,0.908c-0.032,0-0.064,0-0.096,0
		c-0.798-0.031-1.516-0.334-2.153-0.908c-0.639-0.574-0.957-1.309-0.957-2.201c0-0.701,0.223-1.324,0.67-1.867
		c0.542-0.67,1.036-1.371,1.483-2.105c0.925-1.594,1.595-3.293,2.01-5.096c0.414-1.802,0.686-3.413,0.813-4.833
		c0.127-1.419,0.191-3.039,0.191-4.857v-6.699c0-1.148,0.407-2.129,1.22-2.943s1.794-1.22,2.943-1.22H137.097z M104.797,9.458
		h36.941c0.797,0,1.467,0.271,2.01,0.813c0.542,0.543,0.813,1.205,0.813,1.986c0,0.782-0.271,1.444-0.813,1.986
		c-0.543,0.543-1.213,0.813-2.01,0.813h-36.941c-0.798,0-1.468-0.271-2.01-0.813c-0.543-0.542-0.813-1.204-0.813-1.986
		c0-0.781,0.271-1.443,0.813-1.986C103.33,9.73,104,9.458,104.797,9.458z M135.422,24.771c0-0.318-0.16-0.479-0.479-0.479h-22.06
		c-0.319,0-0.479,0.16-0.479,0.479v5.024c0,0.702-0.017,1.292-0.048,1.771c0,0.128,0.048,0.239,0.144,0.335s0.207,0.144,0.335,0.144
		h22.107c0.318,0,0.479-0.159,0.479-0.479V24.771z"/>
</g>
<g>
	<path fill="#1469BF" d="M184.221,46.303c0.43,0.646,0.646,1.345,0.646,1.883c0,1.613-1.506,2.85-3.441,2.85
		c-1.076,0-1.99-0.592-2.743-1.721l-10.324-16.4h-10.485v15.325c0,1.452-1.56,2.796-3.28,2.796s-3.011-1.183-3.011-2.796V14.954
		c0-2.742,2.42-5,5.323-4.947h14.626c7.797,0,12.476,4.355,12.476,11.615c0,4.57-2.151,8.281-5.754,9.894
		c-0.914,0.43-1.021,0.43-2.904,0.86L184.221,46.303z M171.746,26.999c3.979,0,5.969-1.828,5.969-5.484
		c0-3.926-1.882-5.592-6.292-5.592h-11.399c-1.774,0.054-2.097,0.322-2.151,1.828v9.249H171.746z"/>
	<path fill="#1469BF" d="M215.514,48.508c0,1.398-1.344,2.527-2.957,2.527c-1.022,0-1.99-0.484-2.581-1.291
		c-0.108-0.16-0.162-0.268-0.484-1.021c-0.914,0.592-1.021,0.646-1.29,0.807c-1.721,0.969-4.033,1.506-6.238,1.506
		c-3.441,0-6.506-1.236-8.496-3.441c-1.828-1.989-2.688-4.84-2.688-8.604V23.611c0-1.398,1.344-2.527,2.958-2.527
		s2.958,1.129,2.958,2.527v15.164c0,4.355,1.828,6.721,5.27,6.721c2.85,0,4.517-0.914,7.636-4.193V23.611
		c0-1.344,1.344-2.527,2.958-2.527c1.613,0,2.957,1.129,2.957,2.527V48.508z"/>
	<path fill="#1469BF" d="M228.311,23.988c1.398-0.86,1.451-0.914,1.828-1.129c1.99-1.129,4.463-1.774,6.829-1.774
		c3.979,0,7.958,1.774,10.7,4.786c2.366,2.688,3.604,6.076,3.604,10.271c0,8.765-5.916,14.895-14.357,14.895
		c-3.388,0-5.162-0.592-8.442-2.688c-0.107,0.269-0.161,0.538-0.215,0.646c-0.323,1.29-1.398,2.043-2.904,2.043
		c-1.667,0-2.958-1.075-2.958-2.365V12.158c0-1.613,1.237-2.688,2.958-2.688c1.667,0,2.958,1.129,2.958,2.688V23.988z
		 M228.311,35.926c0,5.431,3.764,9.57,8.765,9.57c4.839,0,8.28-3.871,8.28-9.355c0-5.592-3.494-9.464-8.388-9.464
		S228.311,30.709,228.311,35.926z"/>
	<path fill="#1469BF" d="M276.866,22.697c0.483-1.075,1.344-1.613,2.688-1.613c1.829,0,3.065,1.075,3.065,2.581
		c0,0.43-0.161,1.291-0.269,1.559l-12.852,29.897c-1.236,2.903-3.173,4.248-6.076,4.248c-4.355,0-6.775-1.184-6.775-3.388
		c0-1.506,1.236-2.851,2.688-2.851c0.431,0,0.914,0.054,1.506,0.216c1.075,0.269,1.505,0.322,1.882,0.322
		c0.484,0,0.86-0.215,1.021-0.592l2.098-4.893l-10.916-22.799c-0.215-0.376-0.322-1.022-0.322-1.56c0-1.667,1.129-2.742,2.957-2.742
		c1.291,0,2.258,0.538,2.742,1.559l8.711,18.175L276.866,22.697z"/>
</g>
<g>
	<path fill="#1469BF" d="M299.038,27.049c-0.894,0-1.659-0.318-2.297-0.957c-0.639-0.638-0.957-1.403-0.957-2.297
		c0-0.063-0.032-0.12-0.096-0.167c-0.064-0.048-0.128-0.055-0.191-0.024c-1.627,1.148-3.366,2.233-5.216,3.254
		c-0.447,0.224-0.926,0.335-1.436,0.335c-0.287,0-0.574-0.048-0.861-0.144c-0.798-0.223-1.452-0.686-1.962-1.388
		c-0.319-0.446-0.479-0.925-0.479-1.436c0-0.191,0.016-0.383,0.048-0.574c0.159-0.733,0.574-1.26,1.244-1.579
		c2.998-1.595,5.829-3.517,8.493-5.766s4.921-4.553,6.771-6.915c1.308-1.627,2.919-2.44,4.833-2.44s3.541,0.798,4.881,2.393
		c4.37,5.2,9.618,9.172,15.743,11.915c0.701,0.319,1.164,0.861,1.388,1.627c0.063,0.256,0.096,0.495,0.096,0.718
		c0,0.511-0.16,0.989-0.479,1.436c-0.543,0.766-1.244,1.276-2.105,1.531c-0.352,0.096-0.687,0.144-1.005,0.144
		c-0.543,0-1.069-0.127-1.579-0.383c-1.596-0.861-3.19-1.834-4.785-2.919c-0.064-0.031-0.128-0.031-0.191,0
		c-0.064,0.032-0.096,0.096-0.096,0.191c0,0.957-0.335,1.771-1.005,2.44s-1.483,1.005-2.44,1.005H299.038z M289.85,36.476
		c-0.734,0-1.363-0.263-1.891-0.79c-0.525-0.525-0.789-1.164-0.789-1.914c0-0.749,0.264-1.379,0.789-1.89
		c0.527-0.51,1.156-0.766,1.891-0.766h35.075c0.733,0,1.364,0.256,1.89,0.766c0.527,0.511,0.79,1.141,0.79,1.89
		c0,0.75-0.263,1.388-0.79,1.914c-0.525,0.527-1.156,0.79-1.89,0.79h-18.901c-0.319,0-0.543,0.144-0.67,0.431
		c-1.244,2.68-2.536,5.28-3.876,7.8c-0.064,0.064-0.064,0.144,0,0.239c0.063,0.096,0.144,0.144,0.239,0.144
		c3.03-0.096,7.608-0.271,13.733-0.526c0.096,0,0.167-0.039,0.216-0.119c0.047-0.08,0.039-0.151-0.024-0.216
		c-0.798-0.893-1.611-1.754-2.44-2.584c-0.415-0.414-0.622-0.909-0.622-1.483c0-0.127,0-0.239,0-0.335
		c0.096-0.701,0.462-1.228,1.101-1.579c0.605-0.318,1.244-0.479,1.914-0.479c0.191,0,0.366,0,0.526,0
		c0.861,0.128,1.61,0.479,2.249,1.053c2.902,2.775,5.343,5.487,7.321,8.135c0.383,0.511,0.574,1.053,0.574,1.627
		c0,0.223-0.032,0.446-0.096,0.67c-0.191,0.861-0.654,1.515-1.388,1.962c-0.543,0.287-1.085,0.431-1.627,0.431
		c-0.256,0-0.511-0.017-0.766-0.048c-0.861-0.224-1.531-0.702-2.01-1.436c-0.032-0.032-0.064-0.08-0.096-0.144
		c-0.16-0.191-0.367-0.287-0.622-0.287c-2.775,0.159-12.33,0.605-28.663,1.34c-0.064,0-0.112,0-0.144,0
		c-0.734,0-1.404-0.239-2.01-0.718c-0.606-0.543-0.974-1.213-1.101-2.01c0-0.127,0-0.255,0-0.383c0-0.574,0.207-1.101,0.622-1.579
		c0.479-0.574,1.101-0.877,1.866-0.909c1.531-0.031,2.902-0.063,4.115-0.096c0.318-0.031,0.542-0.175,0.67-0.431
		c1.34-2.807,2.44-5.471,3.302-7.991c0.063-0.127,0.056-0.239-0.024-0.335s-0.167-0.144-0.263-0.144H289.85z M298.511,21.402
		c-0.032,0.032-0.04,0.088-0.024,0.167c0.016,0.08,0.072,0.12,0.168,0.12h17.514c0.063,0,0.111-0.04,0.144-0.12
		c0.031-0.079,0.016-0.135-0.048-0.167c-3.701-2.807-6.636-5.614-8.805-8.422c-0.191-0.223-0.383-0.207-0.574,0.048
		C304.748,15.899,301.957,18.691,298.511,21.402z"/>
	<path fill="#1469BF" d="M347.416,14.99c0.638,0,1.18,0.224,1.627,0.67c0.446,0.447,0.67,0.989,0.67,1.627
		c0,0.639-0.224,1.181-0.67,1.627c-0.447,0.447-0.989,0.67-1.627,0.67h-11.771c-0.639,0-1.181-0.223-1.627-0.67
		c-0.447-0.446-0.67-0.988-0.67-1.627c0-0.638,0.223-1.18,0.67-1.627c0.446-0.446,0.988-0.67,1.627-0.67H347.416z M344.066,35.231
		c1.148,0,2.13,0.399,2.942,1.196c0.814,0.798,1.221,1.787,1.221,2.967v6.46c0,1.148-0.406,2.13-1.221,2.942
		c-0.812,0.814-1.794,1.221-2.942,1.221h-4.115c-0.128,0-0.191,0.063-0.191,0.191c0,0.51-0.176,0.94-0.526,1.292
		c-0.352,0.351-0.782,0.526-1.292,0.526h-0.479c-0.606,0-1.133-0.224-1.579-0.67c-0.447-0.447-0.67-0.989-0.67-1.627V39.395
		c0-1.18,0.406-2.169,1.221-2.967c0.812-0.797,1.794-1.196,2.942-1.196H344.066z M337.51,26.235c-0.606,0-1.125-0.215-1.555-0.646
		c-0.432-0.431-0.646-0.957-0.646-1.579s0.215-1.148,0.646-1.579c0.43-0.431,0.948-0.646,1.555-0.646h8.757
		c0.605,0,1.124,0.215,1.556,0.646c0.43,0.431,0.646,0.957,0.646,1.579s-0.216,1.148-0.646,1.579
		c-0.432,0.431-0.95,0.646-1.556,0.646H337.51z M337.51,32.839c-0.606,0-1.125-0.215-1.555-0.646
		c-0.432-0.431-0.646-0.949-0.646-1.555c0-0.605,0.215-1.125,0.646-1.555c0.43-0.431,0.948-0.646,1.555-0.646h8.757
		c0.605,0,1.124,0.215,1.556,0.646c0.43,0.431,0.646,0.95,0.646,1.555c0,0.606-0.216,1.125-0.646,1.555
		c-0.432,0.431-0.95,0.646-1.556,0.646H337.51z M346.124,8.387c0.605,0,1.125,0.215,1.555,0.646
		c0.432,0.431,0.646,0.957,0.646,1.579s-0.215,1.148-0.646,1.579c-0.43,0.431-0.949,0.646-1.555,0.646h-8.326
		c-0.606,0-1.125-0.215-1.555-0.646c-0.432-0.431-0.646-0.957-0.646-1.579s0.215-1.148,0.646-1.579
		c0.43-0.431,0.948-0.646,1.555-0.646H346.124z M343.587,40.256c0-0.318-0.16-0.479-0.479-0.479h-2.871
		c-0.319,0-0.479,0.16-0.479,0.479v4.689c0,0.319,0.159,0.479,0.479,0.479h2.871c0.318,0,0.479-0.159,0.479-0.479V40.256z
		 M371.676,40.974c0.383-0.51,0.877-0.845,1.483-1.005c0.223-0.063,0.462-0.096,0.718-0.096c0.351,0,0.701,0.08,1.053,0.239
		c0.51,0.256,0.845,0.654,1.005,1.196c0.031,0.16,0.048,0.319,0.048,0.479c0,0.383-0.112,0.734-0.335,1.053
		c-0.926,1.148-1.994,2.281-3.206,3.397c-0.224,0.224-0.256,0.463-0.096,0.718c0.67,0.989,1.419,1.483,2.249,1.483
		c0.542,0,0.94-0.67,1.196-2.01c0.063-0.414,0.287-0.701,0.67-0.861c0.383-0.159,0.749-0.127,1.101,0.096
		c0.542,0.319,0.94,0.734,1.196,1.244c0.191,0.319,0.287,0.654,0.287,1.005c0,0.191-0.032,0.367-0.096,0.526
		c-0.415,1.595-1.005,2.743-1.771,3.445c-0.766,0.701-1.787,1.053-3.062,1.053c-2.233,0-4.084-1.021-5.551-3.062
		c-0.16-0.256-0.367-0.304-0.622-0.144c-0.926,0.574-1.866,1.101-2.823,1.579c-0.352,0.191-0.702,0.287-1.053,0.287
		c-0.224,0-0.431-0.032-0.622-0.096c-0.574-0.128-1.069-0.431-1.483-0.909c-0.319-0.352-0.438-0.766-0.358-1.244
		c0.078-0.479,0.326-0.83,0.741-1.053c1.371-0.67,2.68-1.451,3.924-2.345c0.255-0.159,0.335-0.398,0.239-0.718
		c-0.543-1.818-0.941-3.859-1.196-6.125c-0.064-0.318-0.256-0.479-0.574-0.479h-3.78c-0.319,0-0.479,0.16-0.479,0.479v0.957
		c0,0.287,0.144,0.415,0.431,0.383l1.579-0.144c0.063,0,0.127,0,0.191,0c0.479,0,0.893,0.16,1.244,0.479
		c0.446,0.383,0.67,0.861,0.67,1.436c0,0.543-0.176,1.021-0.526,1.436c-0.383,0.447-0.861,0.702-1.436,0.766l-1.723,0.239
		c-0.287,0.032-0.431,0.191-0.431,0.479v2.967c0,1.148-0.137,2.025-0.406,2.632c-0.271,0.605-0.774,1.084-1.508,1.436
		c-0.926,0.414-2.361,0.653-4.307,0.718c-0.032,0-0.064,0-0.096,0c-0.606,0-1.148-0.208-1.627-0.622
		c-0.511-0.383-0.878-0.894-1.101-1.531c-0.16-0.511-0.096-0.981,0.191-1.411c0.287-0.432,0.686-0.646,1.196-0.646
		c0.574,0,1.196,0,1.866,0c0.318-0.032,0.534-0.096,0.646-0.191s0.168-0.271,0.168-0.526v-2.153c0-0.127-0.048-0.23-0.144-0.311
		s-0.208-0.104-0.335-0.072c-0.447,0.032-1.045,0.096-1.795,0.191s-1.188,0.144-1.315,0.144c-0.096,0.032-0.191,0.048-0.287,0.048
		c-0.511,0-0.974-0.159-1.388-0.479c-0.511-0.414-0.813-0.925-0.909-1.531c0-0.127,0-0.239,0-0.335c0-0.479,0.144-0.925,0.431-1.34
		c0.414-0.479,0.925-0.733,1.531-0.766c2.265-0.191,3.509-0.303,3.732-0.335c0.318-0.031,0.479-0.207,0.479-0.526v-1.388
		c0-0.318-0.16-0.479-0.479-0.479h-3.589c-0.606,0-1.108-0.207-1.507-0.622c-0.4-0.414-0.599-0.909-0.599-1.483
		s0.198-1.068,0.599-1.483c0.398-0.414,0.9-0.622,1.507-0.622h3.589c0.318,0,0.479-0.159,0.479-0.479v-1.005
		c0-0.127-0.048-0.231-0.144-0.311c-0.096-0.079-0.208-0.12-0.335-0.12c-0.798,0.096-1.596,0.191-2.393,0.287
		c-0.479,0.032-0.926-0.103-1.34-0.407c-0.415-0.303-0.718-0.694-0.909-1.172c-0.16-0.414-0.136-0.813,0.071-1.196
		s0.534-0.59,0.981-0.622c2.328-0.318,4.466-0.67,6.412-1.053c0.51-0.127,1.021-0.191,1.531-0.191c0.67,0,1.34,0.096,2.01,0.287
		c1.148,0.352,2.121,0.957,2.919,1.818l0.096,0.144c0.031,0.032,0.072,0.041,0.119,0.024c0.049-0.016,0.072-0.055,0.072-0.12
		c0-0.67,0.223-1.228,0.67-1.675c0.479-0.479,1.053-0.718,1.723-0.718s1.236,0.239,1.699,0.718c0.461,0.479,0.709,1.053,0.741,1.723
		c0,1.244,0.031,2.44,0.096,3.589c0,0.319,0.175,0.479,0.526,0.479h4.02c0.096,0,0.168-0.04,0.215-0.12
		c0.049-0.079,0.04-0.167-0.023-0.263c-0.702-0.893-1.611-1.818-2.728-2.775c-0.383-0.351-0.574-0.781-0.574-1.292
		c0-0.51,0.207-0.925,0.622-1.244c0.479-0.351,1.021-0.526,1.627-0.526c0.605,0,1.148,0.191,1.627,0.574
		c0.446,0.352,0.861,0.702,1.244,1.053c0.574,0.543,0.861,1.181,0.861,1.914c0,0.096,0,0.208,0,0.335
		c-0.096,0.861-0.495,1.563-1.196,2.105l-0.096,0.048c-0.032,0.032-0.04,0.072-0.024,0.12s0.056,0.072,0.12,0.072h0.526
		c0.574,0,1.068,0.208,1.483,0.622c0.414,0.415,0.622,0.909,0.622,1.483s-0.208,1.069-0.622,1.483
		c-0.415,0.415-0.909,0.622-1.483,0.622h-5.838c-0.128,0-0.239,0.048-0.335,0.144s-0.128,0.208-0.096,0.335
		c0.096,0.798,0.255,1.739,0.479,2.823c0.031,0.064,0.087,0.112,0.167,0.144c0.08,0.032,0.151,0.017,0.216-0.048
		C371.15,41.676,371.42,41.325,371.676,40.974z M360.718,17.144c0.318,0,0.479-0.159,0.479-0.479v-0.813
		c0-0.318-0.16-0.479-0.479-0.479h-7.848c-0.543,0-1.005-0.191-1.388-0.574s-0.574-0.845-0.574-1.388
		c0-0.542,0.191-1.005,0.574-1.388s0.845-0.574,1.388-0.574h3.015c0.096,0,0.168-0.04,0.215-0.12
		c0.049-0.079,0.04-0.151-0.023-0.215c-0.16-0.287-0.335-0.59-0.526-0.909c-0.16-0.318-0.239-0.638-0.239-0.957
		c0-0.191,0.031-0.383,0.096-0.574c0.159-0.542,0.51-0.909,1.053-1.101c0.318-0.127,0.653-0.191,1.005-0.191
		c0.287,0,0.558,0.032,0.813,0.096c0.638,0.191,1.132,0.543,1.483,1.053c0.574,0.894,1.036,1.723,1.388,2.488
		c0.127,0.287,0.335,0.431,0.622,0.431h5.12c0.351,0,0.59-0.144,0.718-0.431c0.287-0.51,0.574-1.068,0.861-1.675
		c0.351-0.67,0.861-1.164,1.531-1.483c0.383-0.191,0.781-0.287,1.196-0.287c0.287,0,0.574,0.048,0.861,0.144
		c0.605,0.191,1.021,0.591,1.244,1.196c0.063,0.224,0.096,0.431,0.096,0.622c0,0.352-0.112,0.702-0.335,1.053
		c-0.16,0.191-0.304,0.383-0.431,0.574c-0.064,0.064-0.08,0.128-0.048,0.191c0.031,0.064,0.096,0.096,0.191,0.096h2.632
		c0.542,0,1.005,0.191,1.388,0.574s0.574,0.846,0.574,1.388c0,0.543-0.191,1.005-0.574,1.388s-0.846,0.574-1.388,0.574h-8.135
		c-0.319,0-0.479,0.16-0.479,0.479v0.813c0,0.319,0.159,0.479,0.479,0.479h7.178c0.51,0,0.94,0.176,1.292,0.526
		c0.351,0.352,0.526,0.774,0.526,1.268c0,0.495-0.176,0.917-0.526,1.268c-0.352,0.352-0.782,0.526-1.292,0.526h-7.178
		c-0.319,0-0.479,0.16-0.479,0.479v1.005c0,0.319,0.159,0.479,0.479,0.479h9.044c0.574,0,1.068,0.208,1.483,0.622
		c0.414,0.415,0.622,0.917,0.622,1.507c0,0.591-0.208,1.085-0.622,1.483c-0.415,0.399-0.909,0.598-1.483,0.598h-24.835
		c-0.606,0-1.109-0.199-1.508-0.598c-0.398-0.398-0.598-0.893-0.598-1.483c0-0.59,0.199-1.092,0.598-1.507
		c0.398-0.414,0.901-0.622,1.508-0.622h9.235c0.318,0,0.479-0.159,0.479-0.479v-1.005c0-0.318-0.16-0.479-0.479-0.479h-6.46
		c-0.511,0-0.941-0.175-1.292-0.526c-0.352-0.351-0.526-0.773-0.526-1.268c0-0.494,0.175-0.917,0.526-1.268
		c0.351-0.351,0.781-0.526,1.292-0.526H360.718z M360.479,33.939c0,0.319,0.159,0.479,0.479,0.479h3.35
		c0.127,0,0.239-0.048,0.335-0.144s0.144-0.207,0.144-0.335c-0.096-1.499-0.144-2.424-0.144-2.775c0-0.096-0.048-0.183-0.144-0.263
		c-0.096-0.079-0.208-0.103-0.335-0.072c-0.957,0.287-2.026,0.559-3.206,0.813c-0.319,0.064-0.479,0.256-0.479,0.574V33.939z"/>
</g>
<g>
	<path fill="#1469BF" d="M388.251,31.091c0-7.954,0.343-12.96,0.96-14.949c1.92-6.103,6.309-9.12,13.234-9.12
		c6.857,0,11.314,3.017,13.303,9.12c0.617,1.989,0.96,6.995,0.96,14.949s-0.343,12.96-0.96,14.949
		c-1.988,6.103-6.445,9.12-13.303,9.12c-6.926,0-11.314-3.018-13.234-9.12C388.594,44.051,388.251,39.045,388.251,31.091z
		 M402.446,48.303c2.948,0,4.868-1.234,5.76-3.703c0.412-1.234,0.617-5.76,0.617-13.509c0-7.749-0.205-12.274-0.617-13.509
		c-0.892-2.469-2.812-3.703-5.76-3.703s-4.8,1.234-5.691,3.703c-0.412,1.234-0.617,5.76-0.617,13.509
		c0,7.749,0.205,12.274,0.617,13.509C397.646,47.068,399.498,48.303,402.446,48.303z"/>
	<path fill="#1469BF" d="M424.936,30.062l12.205-21.875c0.206-0.274,0.48-0.411,0.823-0.411h6.583c0.48,0,0.617,0.206,0.411,0.686
		l-10.285,18.652l0.137,0.137c0.823-0.412,1.988-0.617,3.497-0.617c3.771,0,6.926,1.234,9.463,3.771s3.841,5.829,3.841,10.012
		c0,4.595-1.44,8.229-4.252,10.835c-2.812,2.605-6.309,3.908-10.629,3.908s-7.886-1.303-10.697-3.84s-4.183-6.104-4.183-10.561
		C421.85,37.399,422.878,33.834,424.936,30.062z M443.862,40.896c0-4.389-2.743-7.405-7.132-7.405c-4.32,0-7.062,3.017-7.062,7.405
		s2.742,7.406,7.062,7.406C441.119,48.303,443.862,45.285,443.862,40.896z"/>
</g>
</svg>
