<?xml version="1.0" encoding="utf-8"?>
<!-- Generator: Adobe Illustrator 16.0.4, SVG Export Plug-In . SVG Version: 6.00 Build 0)  -->
<!DOCTYPE svg PUBLIC "-//W3C//DTD SVG 1.1//EN" "http://www.w3.org/Graphics/SVG/1.1/DTD/svg11.dtd">
<svg version="1.1" id="レイヤー_1" xmlns="http://www.w3.org/2000/svg" xmlns:xlink="http://www.w3.org/1999/xlink" x="0px"
	 y="0px" width="348.256px" height="175px" viewBox="0 0 348.256 175" enable-background="new 0 0 348.256 175"
	 xml:space="preserve">
<g>
	<polygon fill="#231815" points="140.646,89.679 207.922,89.679 207.922,70.611 140.965,70.611 	"/>
	<g>
		<path fill="#543800" d="M183.729,78.474c0,0-2.183-1.093-9.493-1.093c-7.313,0-9.495,1.093-9.495,1.093v-3.057v-3.055
			c0,0,1.744-1.091,9.495-1.091c7.746,0,9.493,1.091,9.493,1.091v3.055V78.474z"/>
		<path fill="#C30D23" d="M174.779,75.196c0,0,11.351-0.221,15.28,2.182c3.929,2.4,8.078,5.896,8.732,15.278
			c0.652,9.387,0.218,19.428-1.092,24.884c-1.311,5.458-8.076,9.168-12.88,10.478c-3.796,1.033-16.153,0.654-19.861,0
			c-3.711-0.655-9.824-3.273-12.441-6.983c-2.62-3.713-4.148-11.569-3.93-20.082c0.219-8.514,0.435-15.688,4.802-20.521
			c4.148-4.582,7.422-4.582,11.352-5.017C168.667,74.976,174.779,75.196,174.779,75.196z"/>
		<path fill="#B28012" d="M183.729,133.911c0,0-2.183-1.091-9.493-1.091c-7.313,0-9.495,1.091-9.495,1.091v-3.058v-3.055
			c0,0,1.744-1.091,9.495-1.091c7.746,0,9.493,1.091,9.493,1.091v3.055V133.911z"/>
		<ellipse fill="#906805" cx="174.298" cy="134.082" rx="9.499" ry="1.717"/>
		<g>
			<g>
				<g>
					<path fill="#231815" d="M167.771,82.144c1.013-0.195,1.123-0.195,1.388-0.271c0-0.209,0-0.309,0-0.518
						c-0.873,0.111-1.308,0.164-2.175,0.275c-0.563,0.119-2.698,0.441-3.939,0.502c-0.224,0.012-1.584,0.111-2.29,0.031
						c-0.78-0.092-0.905-0.102-1.127-0.119c-1.659-0.139-2.315-0.498-2.315-1.152c0-0.35,0.742-0.641,0.854-0.669
						c1.758-0.636,2.647-0.88,4.422-1.259c1.537-0.395,2.304-0.529,3.832-0.783c0.915-0.15,1.373-0.225,2.288-0.371
						c1.543-0.168,2.315-0.254,3.858-0.419c1.798-0.105,2.697-0.162,4.498-0.269c1.604-0.071,2.406-0.106,4.011-0.174
						c1.409,0.029,2.114,0.014,3.511,0.15c0.67,0.074,3.314,0.835,4.367,1.528c1.197,0.792,1.669,1.637,1.669,2.073
						c0.003,0.881-1.396,0.58-1.701,0.523c-1.202-0.213-1.199-0.174-1.571-0.271c-1.571-0.365-2.346-0.511-3.915-0.73
						c-1.045-0.106-1.573-0.127-2.622-0.196c-1.033,0.049-1.551,0.076-2.587,0.125c-0.938,0.049-1.573,0.17-1.948,0.269
						c0.091,0.229,0.134,0.339,0.225,0.565c0.899-0.07,1.011-0.07,1.349-0.099c0.674-0.036,1.014-0.058,1.688-0.097
						c1.078,0.01,1.617,0.014,2.695,0.025c1.76,0.025,2.815,0.301,4.259,0.688c0.442,0.121,0.608,0.176,1.945,0.812
						c1.456,0.696,2.679,1.938,2.603,3.485c-0.03,0.676-0.046,1.023-0.072,1.758c-0.038,1.332-0.525,2.346-2.512,2.342
						c-0.375,0-1.611-0.121-1.611-0.121c-0.013,0.039,2.327,1.379,2.846,2.365c0.415,0.78,0.676,2.287,0.639,2.731
						c-0.061,0.868-0.092,1.3-0.149,2.168c-0.014,0.187-0.022,0.279-0.036,0.466c0,0.223-0.116,1.266-0.639,1.652
						c-1.071,0.79-2.287,0.881-3.148,0.881c-0.561,0-1.386-0.072-1.574-0.098c-1.694-0.146-2.539-0.217-4.236-0.368
						c-0.882,0-1.325,0.003-2.207,0.003c-1.483,0.067-2.228,0.105-3.711,0.17c-1.993,0.16-2.991,0.24-4.985,0.395
						c-2.848,0.223-2.923,0.127-3.26,0.127c-0.076,0-1.708-0.246-2.361-0.297c-0.633-0.048-1.049,0.099-1.312,0.099
						c-3.148,0-4.421-2.66-4.159-4.903c0.075-0.629,0.113-0.945,0.189-1.572c0-0.102-0.076-1.453-0.227-1.555
						c-0.562-0.367-0.827-0.566-0.827-1.008c0-0.322,0.717-0.785,0.714-0.836c0-0.035-0.822-0.549-0.936-0.643
						c-0.324-0.271-0.563-0.618-0.563-0.983c0-0.264,0.244-0.45,0.488-1.116c0.065-0.181,0.816-3.438,0.816-3.459
						c0-0.131-0.082-0.207-0.484-0.405c-0.068-0.032-0.187-0.116-0.187-0.264c0-0.462,0.857-0.725,1.229-0.779
						c1.386-0.212,2.695,0.589,3.379,0.774c0.125,0.037,0.3-0.121,1.689-0.42C165.409,82.571,166.198,82.438,167.771,82.144z
						 M162.674,91.479c0.707,0.205,2.21-0.373,2.21-0.373c0-0.02-2.981-1.272-3.221-1.254c-0.048,0.002-0.789,0.615-0.789,0.615
						C160.887,90.548,162.124,91.318,162.674,91.479z M163.836,87.943c-0.011-0.04-1.667-0.155-1.763-0.08
						c-0.065,0.054-0.227,1.126-0.227,1.126C161.904,89.043,163.836,87.943,163.836,87.943z M162.259,86.851
						c0.752-0.224,2.663-1.043,2.663-1.043c-0.006-0.022-1.8,0.11-2.663,0.12C162.259,86.296,162.259,86.481,162.259,86.851z
						 M164.547,94.999c1.739-0.287,2.609-0.429,4.35-0.715c0.03-0.293,0.045-0.443,0.075-0.736
						c-0.302,0.023-2.331,0.364-2.401,0.367c-0.789,0.035-1.463,0.148-1.91,0.148c-0.226,0-0.452-0.025-0.824-0.075
						c-0.03,0.455-0.046,0.681-0.075,1.134C164.074,95.071,164.232,95.048,164.547,94.999z M169.045,96.648
						c-0.49,0.024-2.625,0.268-3.037,0.268c-0.525,0-1.828-0.299-1.91-0.218c-0.076,0.07,0.077,0.855,0.261,0.961
						c0.179,0.103,2.444-0.156,2.811-0.196c0.996-0.114,1.126-0.099,1.876-0.298C169.045,96.96,169.045,96.854,169.045,96.648z
						 M164.208,89.458c0.414,0.147,0.565,0.198,0.751,0.198c0.415,0,2.662-1.726,2.662-1.726c-0.01-0.012-1.613,0.445-2.247,0.838
						c-0.522,0.322-0.603,0.345-1.126,0.614C164.232,89.412,164.223,89.428,164.208,89.458z M169.08,86.159
						c0.025-0.018-0.056-0.873-0.073-0.886c-0.123-0.11-2.287,0.466-2.287,0.466C166.72,85.751,169.015,86.21,169.08,86.159z
						 M169.08,89.312c-1.162,0.812-1.911,1.399-1.911,1.399c0.005,0.008,1.649-0.291,1.951-0.366
						C169.105,89.93,169.095,89.724,169.08,89.312z M178.45,88.743c0.013-0.045-1.351-1.156-1.798-1.402c0,0.367,0,0.545,0,0.91
						c0,0.42-0.118,0.782-0.114,0.786C176.569,89.073,178.447,88.754,178.45,88.743z M177.475,84.879
						c0.411-0.232,1.277-0.63,1.351-0.69c0.029-0.025,0.036-0.051,0.036-0.075c0-0.073-0.112-0.121-0.226-0.121
						c-0.035,0-2.006,0.318-2.021,0.341c-0.067,0.094-0.016,0.75,0,0.766C176.634,85.118,177.439,84.903,177.475,84.879z
						 M180.434,92.759c0.337,0,1.649,0.396,1.948,0.219c0.17-0.099,0.229-0.541,0.229-0.664c0-0.195-0.601-0.565-0.825-0.565
						c0,0-1.478,0.085-2.25,0.173c-0.366,0.04-2.397,0.307-2.511,0.421c-0.121,0.116-0.115,0.607-0.076,0.636
						C177.153,93.121,179.499,92.759,180.434,92.759z M180.584,96.476c0.584,0,0.877,0,1.461,0c-0.038-0.122,0.022-0.713,0-0.738
						c-0.048-0.058-1.798-0.199-1.986-0.199c-0.749,0-2.501,0.039-2.732,0.248c-0.054,0.045-0.092,0.869-0.073,0.887
						C177.6,96.998,179.91,96.476,180.584,96.476z M183.543,87.183c0.108-0.028,0.264-0.425,0.264-1.21
						c0-0.216-0.001-0.321-0.001-0.537c-0.486,0.171-0.801,0.267-1.723,0.427c-0.777,0.133-1.235,0.247-1.235,0.247
						C180.848,86.149,183.123,87.285,183.543,87.183z M182.945,84.037c0.407,0.198,0.711,0.321,0.711,0.321
						c0.08-0.058-0.075-0.834-0.412-0.834c-0.224-0.003-1.536,0.099-1.536,0.099S182.647,83.894,182.945,84.037z M185.047,89.136
						c-0.34-0.27-0.978-0.695-1.427-0.965c-0.093,0.307-0.135,0.465-0.223,0.77C184.054,89.018,184.386,89.059,185.047,89.136z"/>
					<path fill="#231815" d="M173.615,107.875c-0.03,0.881-0.046,1.315-0.075,2.193c0.09,1.161,0.136,1.743,0.227,2.905
						c0.112,1.6-2.361,2.342-3.859,2.39c-0.704,0.02-1.059,0.029-1.763,0.049c-2.25,0.393-2.474,0.415-2.924,0.423
						c-0.711,0.01-0.786-0.013-1.8-0.256c0.043,1.133,0.062,1.688,0.107,2.808c0.046,0.272,0.065,0.41,0.111,0.681
						c0.105,0.013,0.158,0.02,0.264,0.034c1.327,0.2,1.983,0.265,3.306,0.422c2.097,0.167,3.147,0.253,5.245,0.42
						c2.473,0.147,3.711,0.221,6.185,0.369c1.499,0.029,2.247,0.042,3.745,0.073c0.412,0,0.867-0.031,1.014-0.115
						c0.136-0.084,0.264-0.692,0.264-0.815c0.016-0.875,0.021-1.312,0.035-2.189c0.061-0.897,0.091-1.346,0.151-2.252
						c-0.825,0.064-1.836,0.178-2.772,0.178c-0.562,0-3.438-0.075-5.024-1.551c-0.935-0.873-1.233-1.773-1.048-4.827
						c0.045-0.77,0.065-1.154,0.11-1.922c0.038-0.886,0.227-1.943,0.227-2.093c0-0.197-0.08-0.259-0.75-0.642
						c-0.218-0.123-0.376-0.342-0.376-0.538c0-0.37,0.341-0.796,0.824-0.963c0.075-0.028,0.938-0.121,1.013-0.121
						c1.161,0,2.384,0.938,2.811,0.956c0.244,0.01,2.403-1.176,2.548-1.229c0.442-0.155,1.201-0.319,2.175-0.319
						c3.223-0.002,7.27,1.92,7.27,5.049c0,1.535,0,2.305,0,3.842c-0.014,0.186-0.022,0.278-0.036,0.467c0,0.463,0,0.694,0,1.156
						c-0.016,1.094-0.023,1.611-0.038,2.559c0.029,1.026,0.045,1.489,0.074,2.425c0.045,0.53,0.067,0.789,0.114,1.316
						c-0.031,0.709-0.047,1.068-0.076,1.836c0,0.337-0.108,1.027-1.004,1.996c-0.655,0.712-2.883,1.408-3.898,1.543
						c-1.5,0.203-2.929-0.051-3.679-0.176c-0.989-0.165-1.485-0.251-2.475-0.417c-1.439-0.317-2.158-0.473-3.597-0.79
						c-1.453-0.362-2.182-0.545-3.635-0.909c-1.827-0.395-2.745-0.592-4.573-0.986c-1.078-0.235-1.616-0.336-2.697-0.591
						c-1.086-0.261-1.559-0.435-1.584-0.414c-0.045,0.04,0.188,1.883,0.188,2.227c0,1.178-0.54,2.599-3.005,2.12
						c-2.156-0.42-3.044-2.082-3.054-2.114c-0.068-0.247-0.324-0.896-0.324-1.004c0.045-0.783,0.067-1.151,0.113-1.885
						c0.032-1.305,0.05-1.911,0.085-3.256c0.018-1.312,0.033-2.041,0.048-3.578c0.058-1.409,0.088-2.114,0.148-3.521
						c0.163-1.409,0.249-2.115,0.412-3.523c0.038-0.048,0-0.07-0.035-0.098c-0.784-0.519-1.126-0.711-1.126-1.132
						c0-0.565,0.862-1.106,2.288-1.106c1.234,0,2.287,0.378,2.697,0.689c0.294,0.221,0.425,0.417,0.563,0.417
						c1.033,0.011,2.137-1.357,2.546-1.526c0.599-0.248,1.35-0.444,2.361-0.444c2.662,0,6.071,1.554,6.071,4.239
						c0,0.037,0,0.058,0,0.098C173.683,107.021,173.66,107.306,173.615,107.875z M165.859,107.752
						c0.372-0.067,0.409-0.073,0.784-0.196c0.076-0.025,0.958-0.047,1.014-0.1c0.105-0.093,0.078-0.661,0.078-1.006
						c0-0.174,0-0.297-0.337-0.297c-0.375,0-0.568,0.174-0.755,0.344c-1.011,0.943-2.708,0.773-3.107,1.109
						c-0.098,0.081-0.077,0.345-0.077,0.566c0,0.275,0,0.411,0,0.689C163.873,108.689,165.45,107.829,165.859,107.752z
						 M163.946,112.481c1.319-0.336,1.979-0.5,3.298-0.834c0-0.308,0-0.461,0-0.768c-0.299,0.223-1.312,0.641-2.473,0.641
						c-0.674,0-1.087-0.123-1.312-0.171c0,0.493,0,0.74,0,1.229C163.654,112.54,163.753,112.519,163.946,112.481z M181.374,111.521
						c0.364-0.08,2.397-0.443,2.583-0.465c0-0.248,0-0.373,0-0.618c-1.31,0.222-2.134,0.319-2.882,0.319
						c-0.375,0-0.809-0.091-0.866-0.049c-0.112,0.089-0.106,0.857,0.038,0.984C180.33,111.767,180.604,111.692,181.374,111.521z
						 M181.935,107.114c0.369-0.088,1.002-0.193,1.722-0.295c0.108-0.015,0.332-0.045,0.337-0.053
						c0.022-0.017,0.04-0.541,0.04-0.613c0-0.123-0.112-0.297-0.262-0.297c-0.115,0-0.724,0.239-0.864,0.271
						c-1.277,0.305-2.143,0.227-2.394,0.42c-0.045,0.035-0.075,0.369-0.075,0.516c0,0.227,0,0.339,0,0.566
						C180.66,107.556,181.716,107.167,181.935,107.114z"/>
				</g>
			</g>
			<g>
				<g>
					<path fill="none" stroke="#FFFFFF" stroke-width="0.786" stroke-linecap="round" stroke-linejoin="round" d="M167.771,82.144
						c1.013-0.195,1.123-0.195,1.388-0.271c0-0.209,0-0.309,0-0.518c-0.873,0.111-1.308,0.164-2.175,0.275
						c-0.563,0.119-2.698,0.441-3.939,0.502c-0.224,0.012-1.584,0.111-2.29,0.031c-0.78-0.092-0.905-0.102-1.127-0.119
						c-1.659-0.139-2.315-0.498-2.315-1.152c0-0.35,0.742-0.641,0.854-0.669c1.758-0.636,2.647-0.88,4.422-1.259
						c1.537-0.395,2.304-0.529,3.832-0.783c0.915-0.15,1.373-0.225,2.288-0.371c1.543-0.168,2.315-0.254,3.858-0.419
						c1.798-0.105,2.697-0.162,4.498-0.269c1.604-0.071,2.406-0.106,4.011-0.174c1.409,0.029,2.114,0.014,3.511,0.15
						c0.67,0.074,3.314,0.835,4.367,1.528c1.197,0.792,1.669,1.637,1.669,2.073c0.003,0.881-1.396,0.58-1.701,0.523
						c-1.202-0.213-1.199-0.174-1.571-0.271c-1.571-0.365-2.346-0.511-3.915-0.73c-1.045-0.106-1.573-0.127-2.622-0.196
						c-1.033,0.049-1.551,0.076-2.587,0.125c-0.938,0.049-1.573,0.17-1.948,0.269c0.091,0.229,0.134,0.339,0.225,0.565
						c0.899-0.07,1.011-0.07,1.349-0.099c0.674-0.036,1.014-0.058,1.688-0.097c1.078,0.01,1.617,0.014,2.695,0.025
						c1.76,0.025,2.815,0.301,4.259,0.688c0.442,0.121,0.608,0.176,1.945,0.812c1.456,0.696,2.679,1.938,2.603,3.485
						c-0.03,0.676-0.046,1.023-0.072,1.758c-0.038,1.332-0.525,2.346-2.512,2.342c-0.375,0-1.611-0.121-1.611-0.121
						c-0.013,0.039,2.327,1.379,2.846,2.365c0.415,0.78,0.676,2.287,0.639,2.731c-0.061,0.868-0.092,1.3-0.149,2.168
						c-0.014,0.187-0.022,0.279-0.036,0.466c0,0.223-0.116,1.266-0.639,1.652c-1.071,0.79-2.287,0.881-3.148,0.881
						c-0.561,0-1.386-0.072-1.574-0.098c-1.694-0.146-2.539-0.217-4.236-0.368c-0.882,0-1.325,0.003-2.207,0.003
						c-1.483,0.067-2.228,0.105-3.711,0.17c-1.993,0.16-2.991,0.24-4.985,0.395c-2.848,0.223-2.923,0.127-3.26,0.127
						c-0.076,0-1.708-0.246-2.361-0.297c-0.633-0.048-1.049,0.099-1.312,0.099c-3.148,0-4.421-2.66-4.159-4.903
						c0.075-0.629,0.113-0.945,0.189-1.572c0-0.102-0.076-1.453-0.227-1.555c-0.562-0.367-0.827-0.566-0.827-1.008
						c0-0.322,0.717-0.785,0.714-0.836c0-0.035-0.822-0.549-0.936-0.643c-0.324-0.271-0.563-0.618-0.563-0.983
						c0-0.264,0.244-0.45,0.488-1.116c0.065-0.181,0.816-3.438,0.816-3.459c0-0.131-0.082-0.207-0.484-0.405
						c-0.068-0.032-0.187-0.116-0.187-0.264c0-0.462,0.857-0.725,1.229-0.779c1.386-0.212,2.695,0.589,3.379,0.774
						c0.125,0.037,0.3-0.121,1.689-0.42C165.409,82.571,166.198,82.438,167.771,82.144z M162.674,91.479
						c0.707,0.205,2.21-0.373,2.21-0.373c0-0.02-2.981-1.272-3.221-1.254c-0.048,0.002-0.789,0.615-0.789,0.615
						C160.887,90.548,162.124,91.318,162.674,91.479z M163.836,87.943c-0.011-0.04-1.667-0.155-1.763-0.08
						c-0.065,0.054-0.227,1.126-0.227,1.126C161.904,89.043,163.836,87.943,163.836,87.943z M162.259,86.851
						c0.752-0.224,2.663-1.043,2.663-1.043c-0.006-0.022-1.8,0.11-2.663,0.12C162.259,86.296,162.259,86.481,162.259,86.851z
						 M164.547,94.999c1.739-0.287,2.609-0.429,4.35-0.715c0.03-0.293,0.045-0.443,0.075-0.736
						c-0.302,0.023-2.331,0.364-2.401,0.367c-0.789,0.035-1.463,0.148-1.91,0.148c-0.226,0-0.452-0.025-0.824-0.075
						c-0.03,0.455-0.046,0.681-0.075,1.134C164.074,95.071,164.232,95.048,164.547,94.999z M169.045,96.648
						c-0.49,0.024-2.625,0.268-3.037,0.268c-0.525,0-1.828-0.299-1.91-0.218c-0.076,0.07,0.077,0.855,0.261,0.961
						c0.179,0.103,2.444-0.156,2.811-0.196c0.996-0.114,1.126-0.099,1.876-0.298C169.045,96.96,169.045,96.854,169.045,96.648z
						 M164.208,89.458c0.414,0.147,0.565,0.198,0.751,0.198c0.415,0,2.662-1.726,2.662-1.726c-0.01-0.012-1.613,0.445-2.247,0.838
						c-0.522,0.322-0.603,0.345-1.126,0.614C164.232,89.412,164.223,89.428,164.208,89.458z M169.08,86.159
						c0.025-0.018-0.056-0.873-0.073-0.886c-0.123-0.11-2.287,0.466-2.287,0.466C166.72,85.751,169.015,86.21,169.08,86.159z
						 M169.08,89.312c-1.162,0.812-1.911,1.399-1.911,1.399c0.005,0.008,1.649-0.291,1.951-0.366
						C169.105,89.93,169.095,89.724,169.08,89.312z M178.45,88.743c0.013-0.045-1.351-1.156-1.798-1.402c0,0.367,0,0.545,0,0.91
						c0,0.42-0.118,0.782-0.114,0.786C176.569,89.073,178.447,88.754,178.45,88.743z M177.475,84.879
						c0.411-0.232,1.277-0.63,1.351-0.69c0.029-0.025,0.036-0.051,0.036-0.075c0-0.073-0.112-0.121-0.226-0.121
						c-0.035,0-2.006,0.318-2.021,0.341c-0.067,0.094-0.016,0.75,0,0.766C176.634,85.118,177.439,84.903,177.475,84.879z
						 M180.434,92.759c0.337,0,1.649,0.396,1.948,0.219c0.17-0.099,0.229-0.541,0.229-0.664c0-0.195-0.601-0.565-0.825-0.565
						c0,0-1.478,0.085-2.25,0.173c-0.366,0.04-2.397,0.307-2.511,0.421c-0.121,0.116-0.115,0.607-0.076,0.636
						C177.153,93.121,179.499,92.759,180.434,92.759z M180.584,96.476c0.584,0,0.877,0,1.461,0c-0.038-0.122,0.022-0.713,0-0.738
						c-0.048-0.058-1.798-0.199-1.986-0.199c-0.749,0-2.501,0.039-2.732,0.248c-0.054,0.045-0.092,0.869-0.073,0.887
						C177.6,96.998,179.91,96.476,180.584,96.476z M183.543,87.183c0.108-0.028,0.264-0.425,0.264-1.21
						c0-0.216-0.001-0.321-0.001-0.537c-0.486,0.171-0.801,0.267-1.723,0.427c-0.777,0.133-1.235,0.247-1.235,0.247
						C180.848,86.149,183.123,87.285,183.543,87.183z M182.945,84.037c0.407,0.198,0.711,0.321,0.711,0.321
						c0.08-0.058-0.075-0.834-0.412-0.834c-0.224-0.003-1.536,0.099-1.536,0.099S182.647,83.894,182.945,84.037z M185.047,89.136
						c-0.34-0.27-0.978-0.695-1.427-0.965c-0.093,0.307-0.135,0.465-0.223,0.77C184.054,89.018,184.386,89.059,185.047,89.136z"/>
					<path fill="none" stroke="#FFFFFF" stroke-width="0.786" stroke-linecap="round" stroke-linejoin="round" d="M173.615,107.875
						c-0.03,0.881-0.046,1.315-0.075,2.193c0.09,1.161,0.136,1.743,0.227,2.905c0.112,1.6-2.361,2.342-3.859,2.39
						c-0.704,0.02-1.059,0.029-1.763,0.049c-2.25,0.393-2.474,0.415-2.924,0.423c-0.711,0.01-0.786-0.013-1.8-0.256
						c0.043,1.133,0.062,1.688,0.107,2.808c0.046,0.272,0.065,0.41,0.111,0.681c0.105,0.013,0.158,0.02,0.264,0.034
						c1.327,0.2,1.983,0.265,3.306,0.422c2.097,0.167,3.147,0.253,5.245,0.42c2.473,0.147,3.711,0.221,6.185,0.369
						c1.499,0.029,2.247,0.042,3.745,0.073c0.412,0,0.867-0.031,1.014-0.115c0.136-0.084,0.264-0.692,0.264-0.815
						c0.016-0.875,0.021-1.312,0.035-2.189c0.061-0.897,0.091-1.346,0.151-2.252c-0.825,0.064-1.836,0.178-2.772,0.178
						c-0.562,0-3.438-0.075-5.024-1.551c-0.935-0.873-1.233-1.773-1.048-4.827c0.045-0.77,0.065-1.154,0.11-1.922
						c0.038-0.886,0.227-1.943,0.227-2.093c0-0.197-0.08-0.259-0.75-0.642c-0.218-0.123-0.376-0.342-0.376-0.538
						c0-0.37,0.341-0.796,0.824-0.963c0.075-0.028,0.938-0.121,1.013-0.121c1.161,0,2.384,0.938,2.811,0.956
						c0.244,0.01,2.403-1.176,2.548-1.229c0.442-0.155,1.201-0.319,2.175-0.319c3.223-0.002,7.27,1.92,7.27,5.049
						c0,1.535,0,2.305,0,3.842c-0.014,0.186-0.022,0.278-0.036,0.467c0,0.463,0,0.694,0,1.156c-0.016,1.094-0.023,1.611-0.038,2.559
						c0.029,1.026,0.045,1.489,0.074,2.425c0.045,0.53,0.067,0.789,0.114,1.316c-0.031,0.709-0.047,1.068-0.076,1.836
						c0,0.337-0.108,1.027-1.004,1.996c-0.655,0.712-2.883,1.408-3.898,1.543c-1.5,0.203-2.929-0.051-3.679-0.176
						c-0.989-0.165-1.485-0.251-2.475-0.417c-1.439-0.317-2.158-0.473-3.597-0.79c-1.453-0.362-2.182-0.545-3.635-0.909
						c-1.827-0.395-2.745-0.592-4.573-0.986c-1.078-0.235-1.616-0.336-2.697-0.591c-1.086-0.261-1.559-0.435-1.584-0.414
						c-0.045,0.04,0.188,1.883,0.188,2.227c0,1.178-0.54,2.599-3.005,2.12c-2.156-0.42-3.044-2.082-3.054-2.114
						c-0.068-0.247-0.324-0.896-0.324-1.004c0.045-0.783,0.067-1.151,0.113-1.885c0.032-1.305,0.05-1.911,0.085-3.256
						c0.018-1.312,0.033-2.041,0.048-3.578c0.058-1.409,0.088-2.114,0.148-3.521c0.163-1.409,0.249-2.115,0.412-3.523
						c0.038-0.048,0-0.07-0.035-0.098c-0.784-0.519-1.126-0.711-1.126-1.132c0-0.565,0.862-1.106,2.288-1.106
						c1.234,0,2.287,0.378,2.697,0.689c0.294,0.221,0.425,0.417,0.563,0.417c1.033,0.011,2.137-1.357,2.546-1.526
						c0.599-0.248,1.35-0.444,2.361-0.444c2.662,0,6.071,1.554,6.071,4.239c0,0.037,0,0.058,0,0.098
						C173.683,107.021,173.66,107.306,173.615,107.875z M165.859,107.752c0.372-0.067,0.409-0.073,0.784-0.196
						c0.076-0.025,0.958-0.047,1.014-0.1c0.105-0.093,0.078-0.661,0.078-1.006c0-0.174,0-0.297-0.337-0.297
						c-0.375,0-0.568,0.174-0.755,0.344c-1.011,0.943-2.708,0.773-3.107,1.109c-0.098,0.081-0.077,0.345-0.077,0.566
						c0,0.275,0,0.411,0,0.689C163.873,108.689,165.45,107.829,165.859,107.752z M163.946,112.481
						c1.319-0.336,1.979-0.5,3.298-0.834c0-0.308,0-0.461,0-0.768c-0.299,0.223-1.312,0.641-2.473,0.641
						c-0.674,0-1.087-0.123-1.312-0.171c0,0.493,0,0.74,0,1.229C163.654,112.54,163.753,112.519,163.946,112.481z M181.374,111.521
						c0.364-0.08,2.397-0.443,2.583-0.465c0-0.248,0-0.373,0-0.618c-1.31,0.222-2.134,0.319-2.882,0.319
						c-0.375,0-0.809-0.091-0.866-0.049c-0.112,0.089-0.106,0.857,0.038,0.984C180.33,111.767,180.604,111.692,181.374,111.521z
						 M181.935,107.114c0.369-0.088,1.002-0.193,1.722-0.295c0.108-0.015,0.332-0.045,0.337-0.053
						c0.022-0.017,0.04-0.541,0.04-0.613c0-0.123-0.112-0.297-0.262-0.297c-0.115,0-0.724,0.239-0.864,0.271
						c-1.277,0.305-2.143,0.227-2.394,0.42c-0.045,0.035-0.075,0.369-0.075,0.516c0,0.227,0,0.339,0,0.566
						C180.66,107.556,181.716,107.167,181.935,107.114z"/>
				</g>
			</g>
			<g>
				<g>
					<path fill="#231815" d="M167.771,82.144c1.013-0.195,1.123-0.195,1.388-0.271c0-0.209,0-0.309,0-0.518
						c-0.873,0.111-1.308,0.164-2.175,0.275c-0.563,0.119-2.698,0.441-3.939,0.502c-0.224,0.012-1.584,0.111-2.29,0.031
						c-0.78-0.092-0.905-0.102-1.127-0.119c-1.659-0.139-2.315-0.498-2.315-1.152c0-0.35,0.742-0.641,0.854-0.669
						c1.758-0.636,2.647-0.88,4.422-1.259c1.537-0.395,2.304-0.529,3.832-0.783c0.915-0.15,1.373-0.225,2.288-0.371
						c1.543-0.168,2.315-0.254,3.858-0.419c1.798-0.105,2.697-0.162,4.498-0.269c1.604-0.071,2.406-0.106,4.011-0.174
						c1.409,0.029,2.114,0.014,3.511,0.15c0.67,0.074,3.314,0.835,4.367,1.528c1.197,0.792,1.669,1.637,1.669,2.073
						c0.003,0.881-1.396,0.58-1.701,0.523c-1.202-0.213-1.199-0.174-1.571-0.271c-1.571-0.365-2.346-0.511-3.915-0.73
						c-1.045-0.106-1.573-0.127-2.622-0.196c-1.033,0.049-1.551,0.076-2.587,0.125c-0.938,0.049-1.573,0.17-1.948,0.269
						c0.091,0.229,0.134,0.339,0.225,0.565c0.899-0.07,1.011-0.07,1.349-0.099c0.674-0.036,1.014-0.058,1.688-0.097
						c1.078,0.01,1.617,0.014,2.695,0.025c1.76,0.025,2.815,0.301,4.259,0.688c0.442,0.121,0.608,0.176,1.945,0.812
						c1.456,0.696,2.679,1.938,2.603,3.485c-0.03,0.676-0.046,1.023-0.072,1.758c-0.038,1.332-0.525,2.346-2.512,2.342
						c-0.375,0-1.611-0.121-1.611-0.121c-0.013,0.039,2.327,1.379,2.846,2.365c0.415,0.78,0.676,2.287,0.639,2.731
						c-0.061,0.868-0.092,1.3-0.149,2.168c-0.014,0.187-0.022,0.279-0.036,0.466c0,0.223-0.116,1.266-0.639,1.652
						c-1.071,0.79-2.287,0.881-3.148,0.881c-0.561,0-1.386-0.072-1.574-0.098c-1.694-0.146-2.539-0.217-4.236-0.368
						c-0.882,0-1.325,0.003-2.207,0.003c-1.483,0.067-2.228,0.105-3.711,0.17c-1.993,0.16-2.991,0.24-4.985,0.395
						c-2.848,0.223-2.923,0.127-3.26,0.127c-0.076,0-1.708-0.246-2.361-0.297c-0.633-0.048-1.049,0.099-1.312,0.099
						c-3.148,0-4.421-2.66-4.159-4.903c0.075-0.629,0.113-0.945,0.189-1.572c0-0.102-0.076-1.453-0.227-1.555
						c-0.562-0.367-0.827-0.566-0.827-1.008c0-0.322,0.717-0.785,0.714-0.836c0-0.035-0.822-0.549-0.936-0.643
						c-0.324-0.271-0.563-0.618-0.563-0.983c0-0.264,0.244-0.45,0.488-1.116c0.065-0.181,0.816-3.438,0.816-3.459
						c0-0.131-0.082-0.207-0.484-0.405c-0.068-0.032-0.187-0.116-0.187-0.264c0-0.462,0.857-0.725,1.229-0.779
						c1.386-0.212,2.695,0.589,3.379,0.774c0.125,0.037,0.3-0.121,1.689-0.42C165.409,82.571,166.198,82.438,167.771,82.144z
						 M162.674,91.479c0.707,0.205,2.21-0.373,2.21-0.373c0-0.02-2.981-1.272-3.221-1.254c-0.048,0.002-0.789,0.615-0.789,0.615
						C160.887,90.548,162.124,91.318,162.674,91.479z M163.836,87.943c-0.011-0.04-1.667-0.155-1.763-0.08
						c-0.065,0.054-0.227,1.126-0.227,1.126C161.904,89.043,163.836,87.943,163.836,87.943z M162.259,86.851
						c0.752-0.224,2.663-1.043,2.663-1.043c-0.006-0.022-1.8,0.11-2.663,0.12C162.259,86.296,162.259,86.481,162.259,86.851z
						 M164.547,94.999c1.739-0.287,2.609-0.429,4.35-0.715c0.03-0.293,0.045-0.443,0.075-0.736
						c-0.302,0.023-2.331,0.364-2.401,0.367c-0.789,0.035-1.463,0.148-1.91,0.148c-0.226,0-0.452-0.025-0.824-0.075
						c-0.03,0.455-0.046,0.681-0.075,1.134C164.074,95.071,164.232,95.048,164.547,94.999z M169.045,96.648
						c-0.49,0.024-2.625,0.268-3.037,0.268c-0.525,0-1.828-0.299-1.91-0.218c-0.076,0.07,0.077,0.855,0.261,0.961
						c0.179,0.103,2.444-0.156,2.811-0.196c0.996-0.114,1.126-0.099,1.876-0.298C169.045,96.96,169.045,96.854,169.045,96.648z
						 M164.208,89.458c0.414,0.147,0.565,0.198,0.751,0.198c0.415,0,2.662-1.726,2.662-1.726c-0.01-0.012-1.613,0.445-2.247,0.838
						c-0.522,0.322-0.603,0.345-1.126,0.614C164.232,89.412,164.223,89.428,164.208,89.458z M169.08,86.159
						c0.025-0.018-0.056-0.873-0.073-0.886c-0.123-0.11-2.287,0.466-2.287,0.466C166.72,85.751,169.015,86.21,169.08,86.159z
						 M169.08,89.312c-1.162,0.812-1.911,1.399-1.911,1.399c0.005,0.008,1.649-0.291,1.951-0.366
						C169.105,89.93,169.095,89.724,169.08,89.312z M178.45,88.743c0.013-0.045-1.351-1.156-1.798-1.402c0,0.367,0,0.545,0,0.91
						c0,0.42-0.118,0.782-0.114,0.786C176.569,89.073,178.447,88.754,178.45,88.743z M177.475,84.879
						c0.411-0.232,1.277-0.63,1.351-0.69c0.029-0.025,0.036-0.051,0.036-0.075c0-0.073-0.112-0.121-0.226-0.121
						c-0.035,0-2.006,0.318-2.021,0.341c-0.067,0.094-0.016,0.75,0,0.766C176.634,85.118,177.439,84.903,177.475,84.879z
						 M180.434,92.759c0.337,0,1.649,0.396,1.948,0.219c0.17-0.099,0.229-0.541,0.229-0.664c0-0.195-0.601-0.565-0.825-0.565
						c0,0-1.478,0.085-2.25,0.173c-0.366,0.04-2.397,0.307-2.511,0.421c-0.121,0.116-0.115,0.607-0.076,0.636
						C177.153,93.121,179.499,92.759,180.434,92.759z M180.584,96.476c0.584,0,0.877,0,1.461,0c-0.038-0.122,0.022-0.713,0-0.738
						c-0.048-0.058-1.798-0.199-1.986-0.199c-0.749,0-2.501,0.039-2.732,0.248c-0.054,0.045-0.092,0.869-0.073,0.887
						C177.6,96.998,179.91,96.476,180.584,96.476z M183.543,87.183c0.108-0.028,0.264-0.425,0.264-1.21
						c0-0.216-0.001-0.321-0.001-0.537c-0.486,0.171-0.801,0.267-1.723,0.427c-0.777,0.133-1.235,0.247-1.235,0.247
						C180.848,86.149,183.123,87.285,183.543,87.183z M182.945,84.037c0.407,0.198,0.711,0.321,0.711,0.321
						c0.08-0.058-0.075-0.834-0.412-0.834c-0.224-0.003-1.536,0.099-1.536,0.099S182.647,83.894,182.945,84.037z M185.047,89.136
						c-0.34-0.27-0.978-0.695-1.427-0.965c-0.093,0.307-0.135,0.465-0.223,0.77C184.054,89.018,184.386,89.059,185.047,89.136z"/>
					<path fill="#231815" d="M173.615,107.875c-0.03,0.881-0.046,1.315-0.075,2.193c0.09,1.161,0.136,1.743,0.227,2.905
						c0.112,1.6-2.361,2.342-3.859,2.39c-0.704,0.02-1.059,0.029-1.763,0.049c-2.25,0.393-2.474,0.415-2.924,0.423
						c-0.711,0.01-0.786-0.013-1.8-0.256c0.043,1.133,0.062,1.688,0.107,2.808c0.046,0.272,0.065,0.41,0.111,0.681
						c0.105,0.013,0.158,0.02,0.264,0.034c1.327,0.2,1.983,0.265,3.306,0.422c2.097,0.167,3.147,0.253,5.245,0.42
						c2.473,0.147,3.711,0.221,6.185,0.369c1.499,0.029,2.247,0.042,3.745,0.073c0.412,0,0.867-0.031,1.014-0.115
						c0.136-0.084,0.264-0.692,0.264-0.815c0.016-0.875,0.021-1.312,0.035-2.189c0.061-0.897,0.091-1.346,0.151-2.252
						c-0.825,0.064-1.836,0.178-2.772,0.178c-0.562,0-3.438-0.075-5.024-1.551c-0.935-0.873-1.233-1.773-1.048-4.827
						c0.045-0.77,0.065-1.154,0.11-1.922c0.038-0.886,0.227-1.943,0.227-2.093c0-0.197-0.08-0.259-0.75-0.642
						c-0.218-0.123-0.376-0.342-0.376-0.538c0-0.37,0.341-0.796,0.824-0.963c0.075-0.028,0.938-0.121,1.013-0.121
						c1.161,0,2.384,0.938,2.811,0.956c0.244,0.01,2.403-1.176,2.548-1.229c0.442-0.155,1.201-0.319,2.175-0.319
						c3.223-0.002,7.27,1.92,7.27,5.049c0,1.535,0,2.305,0,3.842c-0.014,0.186-0.022,0.278-0.036,0.467c0,0.463,0,0.694,0,1.156
						c-0.016,1.094-0.023,1.611-0.038,2.559c0.029,1.026,0.045,1.489,0.074,2.425c0.045,0.53,0.067,0.789,0.114,1.316
						c-0.031,0.709-0.047,1.068-0.076,1.836c0,0.337-0.108,1.027-1.004,1.996c-0.655,0.712-2.883,1.408-3.898,1.543
						c-1.5,0.203-2.929-0.051-3.679-0.176c-0.989-0.165-1.485-0.251-2.475-0.417c-1.439-0.317-2.158-0.473-3.597-0.79
						c-1.453-0.362-2.182-0.545-3.635-0.909c-1.827-0.395-2.745-0.592-4.573-0.986c-1.078-0.235-1.616-0.336-2.697-0.591
						c-1.086-0.261-1.559-0.435-1.584-0.414c-0.045,0.04,0.188,1.883,0.188,2.227c0,1.178-0.54,2.599-3.005,2.12
						c-2.156-0.42-3.044-2.082-3.054-2.114c-0.068-0.247-0.324-0.896-0.324-1.004c0.045-0.783,0.067-1.151,0.113-1.885
						c0.032-1.305,0.05-1.911,0.085-3.256c0.018-1.312,0.033-2.041,0.048-3.578c0.058-1.409,0.088-2.114,0.148-3.521
						c0.163-1.409,0.249-2.115,0.412-3.523c0.038-0.048,0-0.07-0.035-0.098c-0.784-0.519-1.126-0.711-1.126-1.132
						c0-0.565,0.862-1.106,2.288-1.106c1.234,0,2.287,0.378,2.697,0.689c0.294,0.221,0.425,0.417,0.563,0.417
						c1.033,0.011,2.137-1.357,2.546-1.526c0.599-0.248,1.35-0.444,2.361-0.444c2.662,0,6.071,1.554,6.071,4.239
						c0,0.037,0,0.058,0,0.098C173.683,107.021,173.66,107.306,173.615,107.875z M165.859,107.752
						c0.372-0.067,0.409-0.073,0.784-0.196c0.076-0.025,0.958-0.047,1.014-0.1c0.105-0.093,0.078-0.661,0.078-1.006
						c0-0.174,0-0.297-0.337-0.297c-0.375,0-0.568,0.174-0.755,0.344c-1.011,0.943-2.708,0.773-3.107,1.109
						c-0.098,0.081-0.077,0.345-0.077,0.566c0,0.275,0,0.411,0,0.689C163.873,108.689,165.45,107.829,165.859,107.752z
						 M163.946,112.481c1.319-0.336,1.979-0.5,3.298-0.834c0-0.308,0-0.461,0-0.768c-0.299,0.223-1.312,0.641-2.473,0.641
						c-0.674,0-1.087-0.123-1.312-0.171c0,0.493,0,0.74,0,1.229C163.654,112.54,163.753,112.519,163.946,112.481z M181.374,111.521
						c0.364-0.08,2.397-0.443,2.583-0.465c0-0.248,0-0.373,0-0.618c-1.31,0.222-2.134,0.319-2.882,0.319
						c-0.375,0-0.809-0.091-0.866-0.049c-0.112,0.089-0.106,0.857,0.038,0.984C180.33,111.767,180.604,111.692,181.374,111.521z
						 M181.935,107.114c0.369-0.088,1.002-0.193,1.722-0.295c0.108-0.015,0.332-0.045,0.337-0.053
						c0.022-0.017,0.04-0.541,0.04-0.613c0-0.123-0.112-0.297-0.262-0.297c-0.115,0-0.724,0.239-0.864,0.271
						c-1.277,0.305-2.143,0.227-2.394,0.42c-0.045,0.035-0.075,0.369-0.075,0.516c0,0.227,0,0.339,0,0.566
						C180.66,107.556,181.716,107.167,181.935,107.114z"/>
				</g>
			</g>
		</g>
	</g>
	<rect x="73.065" y="70.611" fill="#595757" width="65.047" height="92.329"/>
	<g>
		<path fill="#22323B" d="M89.193,120.707c0,0-0.231-0.619-1.161-1.085c-0.928-0.461-2.167-1.238-2.167-1.238
			s-2.011-2.709-1.936-7.12c0.03-1.638,1.133-8.22,6.082-12.423c2.297-1.949,5.319-3.254,9.247-3.059
			c12.382,0.619,15.089,10.76,15.71,15.016c0.619,4.258-1.624,10.993-4.178,12.464c-1.959,1.129-6.503,1.936-6.503,1.936l2.014,2.32
			c0,0,3.715,0.233,6.192-2.32c2.476-2.555,4.103-5.264,4.41-8.053c0.312-2.785-0.36-8.956-2.165-12.613
			c-2.941-5.96-9.212-10.142-15.17-10.142c-3.726,0-8.201,0.988-11.766,4.566c-2.142,2.149-4.402,6.861-4.722,8.283
			c-0.852,3.793-0.618,9.829,1.237,12.149c1.858,2.323,2.401,3.716,2.476,4.491c0.079,0.774,0.84,1.153,1.582,1.233
			c0.744,0.084,1.593-0.15,1.747-1.464C90.277,122.334,89.193,120.707,89.193,120.707z"/>
		<circle fill="#6F5744" cx="83.389" cy="107.354" r="2.662"/>
		<path fill="#6F5744" d="M92.939,96.44c0,1.473-1.191,2.664-2.662,2.664s-2.662-1.191-2.662-2.664c0-1.467,1.191-2.661,2.662-2.661
			S92.939,94.974,92.939,96.44z"/>
		<circle fill="#6F5744" cx="108.466" cy="97.757" r="2.663"/>
		<circle fill="#6F5744" cx="83.465" cy="117.303" r="2.631"/>
		<circle fill="#6F5744" cx="114.735" cy="106.618" r="2.709"/>
		<path fill="#6F5744" d="M118.064,117.145c0,1.496-1.214,2.71-2.71,2.71c-1.498,0-2.71-1.214-2.71-2.71
			c0-1.492,1.212-2.708,2.71-2.708C116.851,114.437,118.064,115.652,118.064,117.145z"/>
		<path fill="#6C6960" d="M85.181,130.489c0.671-0.236,1.576-0.402,2.081-0.885c-0.947-0.395-2.006-0.561-2.019-1.737
			c-0.013-1.059,0.608-1.426,1.539-1.538c0.239-0.795-1.33-1.717-1.521-2.609c-0.244-1.147,0.486-1.72,1.539-1.995
			c1.134-0.292,2.612-0.338,3.696,0.139c1.081,0.474,1.682,1.421,2.577,2.127c1.011,0.798,2.225,0.9,3.452,1.204
			c0.028-1.322,3.092-1.114,2.803,0.051c0.993-0.632,2.074-1.008,3.275-1.127c1.311-0.128,3.679-0.074,4.782,0.76
			c0.053,0.037,0.485,0.562,0.478,0.559c0.372,0.188,1.043,0.067,1.458,0.067c1.401,0.003,2.458-0.016,3.641,0.762
			c0.545,0.357,1.025,0.621,0.942,1.317c1.079-0.012,2.082,0.498,2.773,1.335c0.528,0.636,0.437,1.009,0.462,1.83
			c0.79,0.144,2.301,0.41,2.63,1.249c0.251,0.657-0.528,2.057-1.063,2.413c-1.162,0.768-2.914,0.122-4.106,0.615
			c-1.018,0.421-1.951,0.629-3.082,0.78c-2.288,0.308-4.968,0.323-7.25-0.022c-2.792-0.42-5.539-0.677-8.357-0.681
			c-1.043,0-10.574,2.009-10.599-0.224c-1.347-0.056-2.695,0.105-4.042,0.07c-1.051-0.025-2.522,0.073-3.52-0.237
			c0.699,0.015,1.821-0.067,2.381-0.527c0.478-0.392,0.417-0.897,0.682-1.408C81.541,131.393,83.823,130.967,85.181,130.489z"/>
		<path fill="#63625A" d="M94.453,106.795c-1.179-0.817-3.756-0.384-5.195-0.483c-0.658-0.048-1.005-0.16-1.619-0.473
			c-0.774-0.391-1.185-0.792-1.008-1.768c0.146-0.792,0.747-1.352,1.091-2.016c0.329-0.636,0.578-1.357,0.868-2.016
			c0.281-0.641,0.721-1.328,0.839-2.015c0.068-0.369-0.164-0.976-0.013-1.317c0.44-0.978,3.034-1.231,3.963-1.006
			c1.515,0.372-0.122,1.688-0.762,2.105c-0.93,0.605-1.262,0.896-1.257,2c0.003,1.045-0.053,2.368-0.769,3.157
			c1.37,0.108,2.745,0.092,4.118,0.038c0.895-0.038,1.815,0.102,2.703-0.053c1.011-0.173,0.754-0.471,1.284-1.123
			c0.41-0.51,1.104-0.614,1.715-0.64c0.178-0.007,1.815,0.019,1.848,0.177c0.616,2.865,2.748,0.914,4.525,2.066
			c1.001,0.649,1.36,1.972,1.858,3.041c1.146,2.472,2.921,4.722,4,7.266c0.392,0.918,0.963,1.649,1.491,2.5
			c0.196,0.319,0.556,0.947,0.913,1.11c0.367,0.167,0.9,0.054,1.317,0.207c0.857,0.319,1.571,0.925,1.184,1.916
			c-0.319,0.816-1.081,1.121-1.866,0.736c-0.228-0.113-0.362-0.423-0.616-0.511c-0.344-0.118-0.814,0.102-1.169,0.006
			c-0.935-0.257-2.238-1.693-2.957-2.403c-1.179-1.165-2.137-2.688-3.015-4.079c-0.588-0.93-0.879-2.012-1.47-2.897
			c-1.187,0.87-0.971,1.008-0.85,2.481c0.083,0.994-0.302,1.527-0.613,2.239c1.406,0.9,2.791,2.421,3.957,3.643
			c0.581,0.613,0.963,1.354,1.388,2.005c0.936,1.435,3.037,4.301,1.604,6.075c-0.717,0.889-2.45,1.341-3.475,1.775
			c-0.94,0.4-1.923,0.885-2.775,1.456c-2.197,1.47,2.761,3.273,0.731,3.949c-1.606,0.535-3.715-0.808-5.003-1.647
			c-1.417-0.928-0.037-1.765,0.993-2.521c0.93-0.683,1.931-1.881,2.029-3.112c0.06-0.731-0.136-0.559-0.948-0.77
			c-0.857-0.225-1.715-0.709-2.635-0.629c-0.671,0.061-1.396,0.893-1.996,0.865c-0.428-0.019-0.749-0.594-1.161-0.77
			c-1.654-0.693-1.496,0.835-2.529,1.383c-0.495,0.261-1.516,0.201-2.095,0.231c-0.515,0.029-1.704,0.208-2.179,0
			c-0.817-0.356-0.417-1.745-0.178-2.479c0.319-0.98,0.477-2.064,0.658-3.172c0.337-2.107,1.516-3.407,2.831-4.993
			c0.538-0.646,1.013-1.086,1.098-1.896c0.171-1.596-0.075-3.16,0.211-4.759C95.723,108.538,95.501,107.521,94.453,106.795z"/>
		<path fill="#495050" d="M93.5,100.339c0.274,0.49,0.704,0.382,1.184,0.457c1.164,0.182,3.535,0.654,3.16,2.242
			c-0.392,1.678-2.886,2.512-4.085,3.58c-1.31,1.164,0.075,2.392,0.895,3.555c0.727,1.025,1.843,2.951,1.664,4.261
			c-0.21,1.54-2.586,2.837-3.716,3.719c-1.126,0.886-1.573,1.604-1.314,3.042c0.128,0.71,0.294,1.483,0.161,2.202
			c-0.176,0.937-0.681,0.997-1.237,1.578c-0.545,0.56-0.646,1.243-1.35,1.733c-0.589,0.41-1.303,0.636-1.795,1.179
			c-0.453,0.496-0.053,1.074-0.271,1.645c-0.271,0.72-1.687,1.025-2.243,1.634c-0.375-0.35-0.849-0.248-1.156,0.071
			c0.545-0.988,1.242-1.836,1.39-3.002c0.04-0.332-0.153-0.948-0.015-1.253c0.518-1.173,2.654-1.227,3.603-1.868
			c1.018-0.687,0.427-2.519,0.372-3.637c-0.091-1.783,0.402-3.183,1.725-4.387c0.618-0.566,1.287-1.094,1.979-1.552
			c0.269-0.178,0.779-0.294,0.99-0.498c0.674-0.648,0.294-1.84-0.01-2.514c-1.043-2.293-3.376-3.834-1.646-6.354
			c0.601-0.872,2.197-1.777,2.28-2.865c-1.949-0.449-3.384-1.934-5.154-2.74c-1.131-0.516-1.551-0.702-1.652-2.014
			c-0.228-3.002,2.54-4.285,5.048-4.395c2.587-0.116,4.44,0.02,6.542,1.257c2.567,1.513,5.34-0.267,8.083,0.289
			c1.099,0.224,3.177,0.719,3.547,1.78c0.488,1.407-0.747,2.841-1.624,3.783c-0.609,0.648-2.311,1.221-2.323,2.023
			c-0.013,0.779,0.93,1.71,1.066,2.615c0.201,1.34,0.141,2.769-0.515,3.912c-0.682,1.189-1.031,1.674-0.86,3.157
			c0.05,0.442,0.055,0.805,0.369,1.171c0.39,0.456,1.091,0.511,1.589,1.007c0.485,0.485,0.92,1.277,1.274,1.85
			c0.541,0.867,1.041,1.752,1.101,2.778c0.083,1.408,0.312,1.617,1.723,2.244c0.792,0.353,4.178,1.251,4.163,2.319
			c-0.032,1.999-6.001-1.036-6.513-1.474c-1.436-1.225-1.738-3.478-3.39-4.431c-0.935-0.54-3.487-0.892-3.879-1.987
			c-0.407-1.138,0.913-2.842,1.297-3.93c0.503-1.433,1.383-2.917,1.554-4.48c0.166-1.517-0.621-2.801-1.262-4.078
			c-0.9-1.78,0.433-2.031,1.491-3.012c0.422-0.39,0.691-0.736,0.792-1.295c0.196-1.102-0.765-1.438-1.622-1.861
			c-1.687-0.834-3.633-0.889-5.478-0.859c-1.484,0.028-2.999-0.321-4.448,0.156C93.879,97.46,92.869,99.194,93.5,100.339z"/>
		<g>
			<path fill="#7D776D" d="M94.378,129.606c-0.451,0.888,0.822,1.021,1.382,1.009c0.337-0.005,0.744,0.094,0.87-0.291
				c0.101-0.317-0.352-0.692-0.605-0.718c0.671-0.107,1.099,0.606,0.892,1.205c-0.239,0.709-1.27,0.822-1.898,0.887
				c-1.322,0.136-2.452-1.938-0.873-2.013"/>
			<path fill="#7D776D" d="M100.26,130.306c-0.611,2.024-2.122,2.232-3.829,2.712c1.197-0.052,3.773,0.68,4.583-0.55
				c0.35-0.525,0.133-2.268-0.676-2.317"/>
			<path fill="#7D776D" d="M94.611,127.905c-1.136,0.138-2.375,0.985-0.616,0.93c0.264-0.007,1.682-0.083,1.76-0.404
				c0.168-0.674-1.159-0.642-1.531-0.604"/>
			<path fill="#7D776D" d="M93.839,129.127c-0.963,0.096-3.798,0.849-3.238-0.928c0.359-1.147,1.468-1.322,2.469-0.942
				c-0.611-0.231-0.98,0.761-0.734,1.155C92.597,128.83,93.422,128.933,93.839,129.127z"/>
			<path fill="#7D776D" d="M110.015,131.312c-0.211,1.548,2.315,1.316,3.319,1.313c-0.503,0-1.639,0.063-1.81-0.591
				c-0.184-0.7,1.403-0.729,1.772-0.991C112.584,130.741,110.193,129.984,110.015,131.312z"/>
			<path fill="#7D776D" d="M109.318,128.602c0.673-0.142,4.083-1.49,4.101,0.013c0.013,0.844-1.3,1.088-2.017,0.978
				c2.002-0.535-0.591-1.139-1.388-1.147"/>
			<path fill="#7D776D" d="M115.277,130.693c1.511,0.57,0.296,1.803-0.677,2.092c0.895-0.013,3.535,0.478,2.615-1.303
				c-0.42-0.812-1.483-0.789-2.248-0.789"/>
		</g>
		<path fill="#6F5744" d="M101.919,93.966c0,1.471-1.194,2.661-2.662,2.661c-1.473,0-2.665-1.19-2.665-2.661
			c0-1.472,1.192-2.663,2.665-2.663C100.726,91.303,101.919,92.494,101.919,93.966z"/>
		<path fill="#63625A" d="M97.927,93.97c0.176-0.389-0.128-0.799,0.106-1.172c0.13-0.213,1.075-0.459,1.051-0.761
			c0.093,1.146,0.161,1.501,1.41,1.581c0.767,0.047,2.647-0.072,2.723,1.07c2.157-0.235,2.009,2.506,1.669,3.84
			c-0.319,1.244-0.432,2.851-1.303,3.902c-1.073,1.297-3.366,1.184-4.708,0.352c-0.986-0.613-0.722-1.293-1.227-2.1
			c-0.48-0.772-1.471-0.279-1.739-1.354c-0.119-0.472-0.312-0.89-0.056-1.357c0.121-0.222,0.998-0.587,0.97-0.487
			c0.184-0.612-0.161-1.342-0.008-2.02c0.079-0.352,0.182-0.727,0.42-1.01c0.143-0.162,0.606-0.305,0.684-0.472
			C97.924,93.979,97.924,93.976,97.927,93.97z"/>
	</g>
	<g>
		<rect x="134.758" y="65.78" fill="#820009" width="8.061" height="97.271"/>
		<rect x="134.351" y="150.66" fill="#231815" width="8.875" height="13.318"/>
	</g>
	<rect x="72.847" y="48.128" fill="#C8C9CA" width="202.776" height="22.701"/>
	<polygon fill="#A50319" points="286.132,51.626 61.036,51.626 57.348,46.487 289.817,46.487 	"/>
	<rect x="208.834" y="70.611" fill="#595757" width="65.047" height="92.329"/>
	<g>
		<path fill="#63625A" d="M237.875,109.786c-0.946,1.455-3.729,1.573-5.34,2.014c-2.112,0.576-4.357,0.91-6.335,1.72
			c-0.632-0.794-0.937-1.461-0.122-2.228c1.028-0.963,2.895-1.48,4.118-2.154c1.122-0.625,1.948-1.355,3.157-1.876
			c0.539-0.231,1.441-0.409,1.881-0.796c0.461-0.405,0.404-0.886,0.705-1.348c0.61-0.932,1.705-1.378,2.845-1.585
			c0.92-0.168,1.943,0.265,2.791-0.2c0.654-0.359,0.94-1.209,1.604-1.584c0.668-0.377,1.562-0.501,2.287-0.586
			c0.457,1.83,2.263,1.503,3.716,1.635c1.586,0.145,4.02,1.212,3.774,3.209c0.995-0.318,4.612,0.855,3.068,2.201
			c-0.327,0.285-0.604-0.219-0.991-0.247c-0.771-0.051-2.016,0.003-2.369,0.796c-0.327,0.732,0.389,1.65,0.419,2.35
			c-0.79-0.119-1.319-0.38-1.696-1.076c-0.201-0.378-0.073-1.713-0.847-1.26c-0.453,0.266-0.063,2.189-0.097,2.668
			c-0.063,0.932-0.307,1.727-1.008,2.385c-1.38,1.3-2.884,1.855-4.736,2.215c-1.911,0.369-4.143-0.131-5.554-1.624
			c-1.595-1.685-0.104-3.15,0.42-4.718c-0.562-0.092-1.177-0.041-1.691,0.203"/>
		<path fill="#495050" d="M228.896,109.104c0.184-2.566,3.834-3.632,5.798-4.093c1.862-0.44,2.911-0.517,4.316-1.931
			c2.021-2.023,4.972-2.334,7.863-2.158c0.705,0.045,2.082-0.025,2.256,0.799c0.186,0.895-0.915,0.834-0.784,1.685
			c1.858,0.11,4.47,0.476,5.774-1.032c0.628-0.723,1.343-2.566,0.41-3.363c-0.934-0.792-3.899-0.246-5.084-0.246
			c-2.551,0-5.224,0.096-7.711,0.709c-1.931,0.478-4.695,0.961-6.249,2.242c-0.589,0.484-0.855,1.188-1.394,1.685
			c-0.681,0.632-1.684,0.749-2.619,0.938c-1.968,0.397-3.53,0.219-4.42,2.028c-0.576,1.178-0.995,2.566,0.113,3.244
			c0.427,0.256,1.132,0.575,1.39-0.166"/>
		<path fill="#63625A" d="M226.85,112.851c-0.957-0.538-0.636-0.862-1.121-1.588c-0.299-0.445-0.093-0.738-0.847-0.469
			c-0.404,0.145-0.687,0.613-0.814,0.996c-0.062,0.186,0.037,1.549,0.077,1.516c-0.81,0.672-1.243,1.778,0.093,2.192
			c0.975,0.302,1.938-0.159,2.705-0.653C228.216,114.026,228.147,113.58,226.85,112.851z"/>
		<path fill="#63625A" d="M239.322,100.122c0.292,1.511,1.229,2.881,2.725,3.352c1.569,0.492,2.586-0.381,3.787-1.298
			c0.824-0.626,2.263-2.247,1.139-3.044c1.36-0.684,1.249-3.437-0.105-4.023c-0.093-0.588-0.505-0.939-0.87-1.438
			c-0.103-0.139-0.545-0.238-0.608-0.382c-0.113-0.276,0.166-0.54,0.105-0.745c-0.2-0.658-0.28-0.786-0.687-1.367
			c-0.299-0.432-0.671-0.427-0.655-1.039c-0.312,0.754-0.588,1.273-1.169,1.778c-0.715,0.618-1.097,0.597-1.039,1.72
			c-0.003-0.07-2.757,1.75-3.014,2.237C238.247,97.161,239.062,98.767,239.322,100.122z"/>
		<path fill="#6C6960" d="M239.72,138.28c-1.891,0.141-3.957,0.131-5.812-0.244c-1.64-0.331-3.913,0.003-5.381-0.783
			c-1.405-0.753-3.321-1.528-3.379-3.375c-0.038-1.194,0.687-1.436,0.91-2.504c0.139-0.677-0.105-0.918,0.337-1.508
			c0.594-0.803,2.094-1.265,2.956-1.678c2.358-1.111,4.942-0.905,7.493-0.905c2.086,0,4.172,0.003,6.259,0
			c0.917,0,1.879-0.08,2.75,0.222c1.129,0.388,2.68,0.327,3.725,0.802c1.274,0.578,1.558,1.229,2.843,0.683
			c1.646-0.705,3.188,0.122,4.854,0.045c1.087-0.054,3.022-0.684,4.017-0.054c0.437,0.276,1.176,1.878,1.5,2.336
			c1.145,1.617,2.143,2.143,4.061,3.115c2.931,1.483-1.918,3.104-3.49,3.315c-4.816,0.657-9.756-0.397-14.589-0.01
			C245.759,137.984,242.729,138.059,239.72,138.28z"/>
		<path fill="#42403B" d="M237.173,125.704c0.379,0.775,1.315,0.629,2.06,0.67c1.596,0.093,0.805,0.473,1.816,1.466
			c0.763,0.743,2.724,1.008,3.744,0.807c0.621-0.12,1.003-0.724,1.478-0.805c0.997-0.168,2.152,0.554,3.27,0.211
			c0.852-0.259,1.249-1.078,1.966-1.339c1.276-0.471,1.702,0.36,2.675-0.744c0.468-0.536,0.666-0.898,0.75-1.624
			c-3.154-0.197-6.372,0.245-9.509-0.132c-1.184-0.144-1.649-1.025-2.66-1.133c-0.611-0.066-1.322,0.459-1.959,0.571
			c-1.506,0.261-5.616-0.446-6.788,0.726C232.381,126.012,236.3,125.961,237.173,125.704z"/>
		<path fill="#7D776D" d="M234.691,124.67c-0.88,0.617-1.971,1.538-1.816,2.843c0.177,1.506,1.819,1.506,2.985,1.929
			c1.418,0.515,2.683,1.161,4.027,1.798c1.135,0.535,2.406,0.315,1.992,1.521c-0.202,0.585-0.95,1.367-1.386,1.833
			c-0.295,0.309-1.227,0.761-1.351,1.241c-0.354,1.368,1.393,1.185,2.029,0.889c1.016-0.477,2.373-0.79,3.38-1.369
			c0.499-0.292,2.251-1.151,2.497-1.614c1.017-1.902-1.822-2.8-2.837-3.507c-2.201-1.528-2.23-4.331-4.724-5.61
			c-1.057-0.542-3.048-0.405-4.342-0.405"/>
		<path fill="#7D776D" d="M250.776,129.849c-1.076,0.018-2.24-0.262-2.472-1.312c-0.233-1.068,1.062-3.436,1.935-4.038
			c1.669-1.146,5.722-0.676,4.987,2.047c-0.366,1.367-1.853,2.853-3.188,3.153C251.689,129.778,251.241,129.838,250.776,129.849z"/>
		<path fill="#63625A" d="M234.717,119.013c-0.709,2.104,0.018,4.698-2.098,6.113c1.049,0.383,1.607-0.263,2.414-0.755
			c0.576,0.604,2.512,0.494,3.037-0.26c0.37,0.752,1.592,1.159,2.414,1.129c1.377-0.053,1.216-0.747,1.828-1.667
			c-0.044,1.016,1.438,2.127,2.392,2.131c0.388,0.003,0.725-0.325,1.102-0.331c0.163-0.003,0.581,0.298,0.817,0.321
			c0.626,0.069,1.252,0.083,1.474-0.557c1.203,1.179,3.009,0.515,4.209-0.365c0.941,0.585,1.81,0.752,3.052,0.677
			c0.151-0.963-0.172-1.972-0.212-2.937c-0.045-1.039,0.225-2.034,0.088-3.076c-0.292-2.252-2.494-3.662-4.294-4.884
			c-0.485-0.327-0.954-0.606-1.478-0.81c-0.907-0.356-0.385-0.388-1.234,0.161c-1.023,0.661-1.702,1.123-2.994,1.222
			c-1.194,0.091-2.429,0.136-3.62-0.042c-1.841-0.275-2.513-1.466-4.136-0.066C236.252,116.07,235.237,117.475,234.717,119.013z"/>
		<path fill="#6F5744" d="M224.856,110.605c0.334-0.642,1.074-0.334,1.318-1.05c0.167-0.504-0.202-1.008-0.234-1.479
			c-0.038-0.571-0.083-1.11,0.341-1.509c0.622-0.583,2.462-0.213,3.055-0.863c0.212-0.234,0.147-1.225,0.378-1.6
			c0.306-0.502,0.887-0.928,1.373-1.23c0.316,0.866-0.41,3.398-0.964,4.156c-0.361,0.498-1.118,0.728-1.211,1.37
			c0.944,0.472,2.333-0.821,3.046-1.329c-0.806,0.629-0.791,1.482-1.271,2.23c-0.465,0.719-0.93,0.816-1.654,1.193
			c-0.672,0.352-1.254,0.639-1.611,1.303c-0.342,0.633-0.397,1.656-1.312,1.592C225.19,113.32,224.475,111.34,224.856,110.605z"/>
		<path fill="#495050" d="M239.448,103.584c0.542,1.909-0.88,3.017,0.153,4.864c0.546,0.972,0.85,1.127,0.551,2.132
			c-0.256,0.86-0.917,1.504-0.802,2.624c0.105,1.002,1.048,1.592,1.146,2.586c0.128,1.319-1.107,2.459-2.087,3.178
			c-1.078,0.789-3.105,1.373-3.809,2.528c-0.388,0.632-0.228,1.413-0.267,2.135c-2.518,0.452-1.986-2.263-1.348-3.623
			c0.95-2.025,3.14-2.939,4.663-4.281c1.126-0.995,0.372-1.592,0.03-2.897c-0.289-1.1,0.596-1.727,0.742-2.731
			c0.197-1.367-0.882-2.343-1.52-3.427C235.785,104.769,237.11,101.485,239.448,103.584z"/>
		<path fill="#495050" d="M252.964,102.624c0.028,0.676-1.363,1.081-1.771,1.387c-0.749,0.561-2.267,1.842-2.418,2.824
			c-0.182,1.155,1.353,2.375,1.823,3.408c0.518,1.15-0.365,1.726-0.207,2.932c2.967,1.107,6.084,3.242,6.686,6.609
			c0.158,0.888-0.099,1.549,0.909,1.939c0.82,0.315,2.51-0.124,3.296-0.413c-0.314,0.191-1.435,1.129-1.371,1.63
			c0.091,0.719,1.095,0.575,1.686,0.688c-0.947,2.339-3.08,1.232-4.646,0.474c-1.649-0.795-2.359-1.841-2.372-3.631
			c-0.01-1.566-0.25-2.549-1.248-3.842c-0.859-1.113-1.813-1.535-2.943-2.187c-0.468-0.27-0.548-0.244-0.856-0.657
			c-0.578-0.757-0.298-1.453-0.408-2.413c-0.118-1.047-0.603-1.49-1.189-2.317c-0.703-0.998-1.001-2.4-0.943-3.606
			c0.061-1.349,1.052-2.709,2.281-3.272C249.95,101.861,252.91,101.344,252.964,102.624z"/>
		<path fill="#6F5744" d="M256.418,108.082c1.966,0.356,0.493,0.765,1.45,1.732c0.953,0.96,2.291-0.677,3.168-0.897
			c0.255,4.181-2.078,2.397-4.737,2.477c-0.106,0.655,1.633,1.537,0.523,2.094c-1.35,0.673-0.96-1.516-1.221-2
			c-0.481-0.897-1.255-0.32-2.138-0.65c-1.219-0.455-3.084-3.301-1.234-3.975C253.51,106.397,255.191,107.858,256.418,108.082z"/>
		<path fill="#7D776D" d="M234.8,133.762c-0.895-0.007-2.769,0.337-3.437-0.431c-1.196-1.376,1.207-1.823,1.978-2.313
			c-1.143-0.677-5.236-0.231-4.562,1.838C229.31,134.479,233.726,133.752,234.8,133.762z"/>
		<path fill="#7D776D" d="M252.76,131.942c1.325-0.435,5.405,0.147,2.62,1.627c-1.606,0.85-4.126,0.726-5.906,0.626
			c1.523-0.556,4.215-0.536,5.353-1.572c-0.302-0.197-0.688-0.406-1.045-0.566"/>
	</g>
	<g>
		<rect x="204.282" y="65.78" fill="#820009" width="8.062" height="97.271"/>
		<rect x="203.875" y="150.66" fill="#231815" width="8.874" height="13.318"/>
	</g>
	<polygon fill="#231815" points="22.29,36.089 20.814,38.487 24.748,42.985 30.744,44.541 36.74,45.924 42.736,47.245 
		48.729,47.479 54.726,47.72 60.722,48.519 294.56,48.519 296.623,47.72 302.618,47.479 308.615,47.245 314.61,45.924 
		320.607,44.541 326.603,42.985 333.838,41.706 335.494,33.982 	"/>
	<rect x="18.367" y="35.388" fill="#A58222" width="2.678" height="6.318"/>
	<rect x="333.838" y="32.838" fill="#A58222" width="2.68" height="8.868"/>
	<g>
		<path fill="#3E3A39" d="M165.173,18.627c79.021,0.151,116.32-5.562,125.192-6.276c-0.295-7.74-1.886-9.652-1.886-9.652
			s-2.718,0.789-10.36,3.097c-7.646,2.308-69.041,4.878-112.622,4.231c-43.581-0.648-86.008-0.959-96.366-2.499
			C58.775,5.991,56.396,3.188,56.396,3.188s-1.773,3.652-1.826,9.146C58.265,13.171,74.376,18.456,165.173,18.627z"/>
		<path fill="#3E3A39" d="M311.33,29.124c-10.012-1.537-17.166-8.905-19.854-14.135c-0.415-0.8-0.781-1.695-1.111-2.639
			c-8.872,0.715-56.69,4.281-125.192,4.22C78.405,16.487,58.265,13.171,54.57,12.334c-2.217,6.036-6.471,15.638-17.956,18.234
			C21.807,33.919,6.031,30.331,4.281,31.69c-1.752,1.355,4.93,3.766,13.383,5.736c15.858,3.695,51.99,4.053,154.068,3.459
			c43.99-0.258,90.605,0.699,117.062-0.582c42.384-2.057,51.184-6.604,51.184-6.604s9.675-3.283,3.939-3.604
			C338.18,29.778,321.34,30.655,311.33,29.124z"/>
	</g>
	<g>
		<path fill="#3E3A39" d="M37.403,24.009c-0.226-0.468-0.535-0.844-0.887-1.154c-1.38-0.315-2.197-0.623-2.197-0.623
			s-2.414-0.727-3.135,1.338c-0.724,2.066,0.216,8.654,0.216,8.654l6.956,0.103C38.402,30.003,38.334,25.938,37.403,24.009z"/>
		<path fill="#717071" d="M69.131,7.527c-3.524,4.447-5.294,7.188-14.722,12.929c-6.818,4.154-14.283,3.227-17.893,2.398
			c0.353,0.311,0.661,0.687,0.887,1.154c0.931,1.929,0.999,5.994,0.953,8.317l0.307,0.005c0,0,11.801-2.821,19.841-8.008
			c7.336-4.736,11.206-9.174,11.206-9.174S71.542,8.256,69.131,7.527z"/>
	</g>
	<g>
		<path fill="#3E3A39" d="M307.621,23.534c0.242-0.465,0.562-0.828,0.923-1.129c1.388-0.277,2.218-0.556,2.218-0.556
			s2.431-0.655,3.093,1.428c0.66,2.087-0.474,8.645-0.474,8.645l-6.958-0.106C306.448,29.493,306.639,25.431,307.621,23.534z"/>
		<path fill="#717071" d="M276.399,6.116c3.392,4.546,5.081,7.339,14.331,13.357c6.691,4.355,14.179,3.652,17.813,2.932
			c-0.361,0.301-0.681,0.664-0.923,1.129c-0.982,1.896-1.173,5.959-1.198,8.281l-0.308-0.002c0,0-11.71-3.171-19.594-8.594
			c-7.191-4.952-10.928-9.506-10.928-9.506S273.968,6.771,276.399,6.116z"/>
	</g>
	<rect x="20.814" y="38.487" fill="#FAEDB4" width="3.934" height="4.498"/>
	<rect x="26.81" y="40.047" fill="#FAEDB4" width="3.934" height="4.494"/>
	<rect x="32.803" y="41.429" fill="#FAEDB4" width="3.937" height="4.495"/>
	<rect x="38.802" y="42.747" fill="#FAEDB4" width="3.935" height="4.498"/>
	<rect x="44.795" y="42.985" fill="#FAEDB4" width="3.934" height="4.494"/>
	<rect x="50.794" y="43.222" fill="#FAEDB4" width="3.932" height="4.498"/>
	<rect x="56.787" y="44.023" fill="#FAEDB4" width="3.935" height="4.495"/>
	<rect x="62.786" y="44.023" fill="#FAEDB4" width="3.932" height="4.495"/>
	<rect x="68.779" y="44.023" fill="#FAEDB4" width="3.935" height="4.495"/>
	<rect x="74.777" y="44.023" fill="#FAEDB4" width="3.933" height="4.495"/>
	<rect x="80.771" y="44.023" fill="#FAEDB4" width="3.935" height="4.495"/>
	<rect x="86.77" y="44.023" fill="#FAEDB4" width="3.933" height="4.495"/>
	<rect x="92.764" y="44.023" fill="#FAEDB4" width="3.935" height="4.495"/>
	<rect x="98.76" y="44.023" fill="#FAEDB4" width="3.932" height="4.495"/>
	<rect x="104.756" y="44.023" fill="#FAEDB4" width="3.934" height="4.495"/>
	<rect x="110.751" y="44.023" fill="#FAEDB4" width="3.932" height="4.495"/>
	<rect x="116.747" y="44.023" fill="#FAEDB4" width="3.935" height="4.495"/>
	<rect x="122.743" y="44.023" fill="#FAEDB4" width="3.933" height="4.495"/>
	<rect x="128.739" y="44.023" fill="#FAEDB4" width="3.935" height="4.495"/>
	<rect x="134.733" y="44.023" fill="#FAEDB4" width="3.934" height="4.495"/>
	<rect x="140.731" y="44.023" fill="#FAEDB4" width="3.932" height="4.495"/>
	<rect x="146.726" y="44.023" fill="#FAEDB4" width="3.934" height="4.495"/>
	<rect x="152.724" y="44.023" fill="#FAEDB4" width="3.932" height="4.495"/>
	<rect x="158.718" y="44.023" fill="#FAEDB4" width="3.934" height="4.495"/>
	<rect x="164.716" y="44.023" fill="#FAEDB4" width="3.932" height="4.495"/>
	<rect x="170.709" y="44.023" fill="#FAEDB4" width="3.935" height="4.495"/>
	<rect x="176.708" y="44.023" fill="#FAEDB4" width="3.931" height="4.495"/>
	<rect x="182.701" y="44.023" fill="#FAEDB4" width="3.935" height="4.495"/>
	<rect x="188.697" y="44.023" fill="#FAEDB4" width="3.934" height="4.495"/>
	<rect x="194.693" y="44.023" fill="#FAEDB4" width="3.932" height="4.495"/>
	<rect x="200.688" y="44.023" fill="#FAEDB4" width="3.932" height="4.495"/>
	<rect x="206.686" y="44.023" fill="#FAEDB4" width="3.932" height="4.495"/>
	<rect x="212.681" y="44.023" fill="#FAEDB4" width="3.932" height="4.495"/>
	<rect x="218.678" y="44.023" fill="#FAEDB4" width="3.932" height="4.495"/>
	<rect x="224.673" y="44.023" fill="#FAEDB4" width="3.932" height="4.495"/>
	<rect x="230.669" y="44.023" fill="#FAEDB4" width="3.933" height="4.495"/>
	<rect x="236.665" y="44.023" fill="#FAEDB4" width="3.932" height="4.495"/>
	<rect x="242.659" y="44.023" fill="#FAEDB4" width="3.935" height="4.495"/>
	<rect x="248.654" y="44.023" fill="#FAEDB4" width="3.935" height="4.495"/>
	<rect x="254.651" y="44.023" fill="#FAEDB4" width="3.935" height="4.495"/>
	<rect x="260.646" y="44.023" fill="#FAEDB4" width="3.935" height="4.495"/>
	<rect x="266.644" y="44.023" fill="#FAEDB4" width="3.935" height="4.495"/>
	<rect x="272.639" y="44.023" fill="#FAEDB4" width="3.935" height="4.495"/>
	<rect x="278.634" y="44.023" fill="#FAEDB4" width="3.936" height="4.495"/>
	<rect x="284.631" y="44.023" fill="#FAEDB4" width="3.935" height="4.495"/>
	<rect x="290.626" y="44.023" fill="#FAEDB4" width="3.934" height="4.495"/>
	<rect x="296.623" y="43.222" fill="#FAEDB4" width="3.932" height="4.498"/>
	<rect x="302.618" y="42.985" fill="#FAEDB4" width="3.933" height="4.494"/>
	<g>
		<polygon fill="#223337" points="138.589,90.905 138.182,90.522 138.182,72.44 138.589,72.897 		"/>
		<polygon fill="#223337" points="137.903,90.263 137.493,89.878 137.493,71.657 137.903,72.128 		"/>
		<polygon fill="#223337" points="137.212,89.611 136.795,89.214 136.792,70.866 137.212,71.339 		"/>
		<polygon fill="#223337" points="136.508,88.944 136.081,88.548 136.081,70.062 136.503,70.54 		"/>
		<polygon fill="#223337" points="135.789,88.269 135.361,87.863 135.356,69.244 135.786,69.731 		"/>
		<polygon fill="#223337" points="135.065,87.584 134.627,87.173 134.625,68.418 135.062,68.913 		"/>
		<polygon fill="#223337" points="134.325,86.888 133.883,86.476 133.878,67.578 134.32,68.079 		"/>
		<polygon fill="#223337" points="133.579,86.19 133.124,85.761 133.124,66.724 133.579,67.238 		"/>
		<polygon fill="#223337" points="132.817,85.47 132.365,85.041 132.362,65.86 132.817,66.374 		"/>
		<polygon fill="#223337" points="132.051,84.743 131.585,84.307 131.582,64.981 132.051,65.503 		"/>
		<polygon fill="#223337" points="131.266,84.009 130.793,83.562 130.796,64.091 131.269,64.623 		"/>
		<polygon fill="#223337" points="130.474,83.258 129.994,82.808 129.997,63.181 130.474,63.724 		"/>
	</g>
	<g>
		<polygon fill="#223337" points="207.922,90.905 208.329,90.522 208.326,72.44 207.922,72.897 		"/>
		<polygon fill="#223337" points="208.608,90.263 209.019,89.878 209.019,71.657 208.605,72.128 		"/>
		<polygon fill="#223337" points="209.299,89.611 209.72,89.214 209.72,70.866 209.299,71.339 		"/>
		<polygon fill="#223337" points="210.004,88.944 210.429,88.548 210.431,70.062 210.008,70.54 		"/>
		<polygon fill="#223337" points="210.723,88.269 211.15,87.863 211.153,69.244 210.726,69.731 		"/>
		<polygon fill="#223337" points="211.446,87.584 211.885,87.173 211.886,68.418 211.452,68.913 		"/>
		<polygon fill="#223337" points="212.187,86.888 212.629,86.476 212.633,67.578 212.188,68.079 		"/>
		<polygon fill="#223337" points="212.932,86.19 213.385,85.761 213.388,66.724 212.935,67.238 		"/>
		<polygon fill="#223337" points="213.697,85.47 214.149,85.041 214.151,65.86 213.697,66.374 		"/>
		<polygon fill="#223337" points="214.462,84.743 214.928,84.307 214.931,64.981 214.462,65.503 		"/>
		<polygon fill="#223337" points="215.242,84.009 215.716,83.562 215.716,64.091 215.242,64.623 		"/>
		<polygon fill="#223337" points="216.037,83.258 216.516,82.808 216.516,63.181 216.034,63.724 		"/>
	</g>
	<rect x="308.615" y="42.747" fill="#FAEDB4" width="3.932" height="4.498"/>
	<rect x="314.61" y="41.429" fill="#FAEDB4" width="3.933" height="4.495"/>
	<g>
		<rect x="117.175" y="70.796" fill="#314448" width="1.988" height="13.749"/>
		<rect x="113.833" y="70.796" fill="#314448" width="1.989" height="13.749"/>
		<rect x="110.495" y="70.796" fill="#314448" width="1.991" height="13.749"/>
		<rect x="107.158" y="70.796" fill="#314448" width="1.986" height="13.749"/>
		<rect x="103.817" y="70.796" fill="#314448" width="1.991" height="13.749"/>
		<rect x="100.479" y="70.796" fill="#314448" width="1.989" height="13.749"/>
		<rect x="97.141" y="70.796" fill="#314448" width="1.988" height="13.749"/>
		<rect x="93.802" y="70.796" fill="#314448" width="1.988" height="13.749"/>
		<rect x="90.46" y="70.796" fill="#314448" width="1.991" height="13.749"/>
		<rect x="87.124" y="70.796" fill="#314448" width="1.989" height="13.749"/>
		<rect x="83.785" y="70.796" fill="#314448" width="1.989" height="13.749"/>
		<rect x="80.444" y="70.796" fill="#314448" width="1.991" height="13.749"/>
	</g>
	<rect x="320.607" y="40.047" fill="#FAEDB4" width="3.931" height="4.494"/>
	<rect x="326.603" y="38.487" fill="#FAEDB4" width="3.932" height="4.498"/>
	<rect x="74.451" y="82.208" fill="#C30D23" width="51.789" height="6.257"/>
	<g>
		<rect x="117.175" y="127.678" fill="#314448" width="1.988" height="34.239"/>
		<rect x="113.833" y="127.678" fill="#314448" width="1.989" height="34.239"/>
		<rect x="110.495" y="127.678" fill="#314448" width="1.991" height="34.239"/>
		<rect x="107.158" y="127.678" fill="#314448" width="1.986" height="34.239"/>
		<rect x="103.817" y="127.678" fill="#314448" width="1.991" height="34.239"/>
		<rect x="100.479" y="127.678" fill="#314448" width="1.989" height="34.239"/>
		<rect x="97.141" y="127.678" fill="#314448" width="1.988" height="34.239"/>
		<rect x="93.802" y="127.678" fill="#314448" width="1.988" height="34.239"/>
		<rect x="90.46" y="127.678" fill="#314448" width="1.991" height="34.239"/>
		<rect x="87.124" y="127.678" fill="#314448" width="1.989" height="34.239"/>
		<rect x="83.785" y="127.678" fill="#314448" width="1.989" height="34.239"/>
		<rect x="80.444" y="127.678" fill="#314448" width="1.991" height="34.239"/>
	</g>
	<rect x="74.451" y="134.852" fill="#C30D23" width="51.789" height="6.259"/>
	<rect x="74.451" y="160.384" fill="#C30D23" width="51.789" height="8.166"/>
	<g>
		<g>
			<polygon fill="#223337" points="141.041,156.699 140.445,156.875 140.445,131.081 141.041,131.198 			"/>
			<polygon fill="#223337" points="140.033,156.995 139.414,157.177 139.414,130.876 140.033,130.998 			"/>
			<polygon fill="#223337" points="138.984,157.302 138.343,157.489 138.343,130.662 138.984,130.79 			"/>
			<polygon fill="#223337" points="137.897,157.624 137.224,157.819 137.224,130.44 137.897,130.577 			"/>
			<polygon fill="#223337" points="136.762,157.955 136.063,158.159 136.063,130.213 136.762,130.351 			"/>
			<polygon fill="#223337" points="135.577,158.302 134.849,158.519 134.849,129.972 135.577,130.115 			"/>
			<polygon fill="#223337" points="134.346,158.664 133.584,158.888 133.584,129.722 134.346,129.871 			"/>
			<polygon fill="#223337" points="133.059,159.042 132.261,159.275 132.261,129.458 133.059,129.617 			"/>
			<polygon fill="#223337" points="131.714,159.438 130.879,159.684 130.879,129.185 131.714,129.35 			"/>
			<polygon fill="#223337" points="130.301,159.851 129.434,160.107 129.434,128.898 130.301,129.07 			"/>
			<polygon fill="#223337" points="128.83,160.284 127.917,160.553 127.917,128.602 128.83,128.78 			"/>
		</g>
		<polygon fill="#820009" points="141.081,141.212 126.937,141.325 126.937,135.064 141.081,136.729 		"/>
		<polygon fill="#40210F" points="141.187,163.994 129.129,168.666 129.129,157.784 141.187,155.432 		"/>
	</g>
	<g>
		<g>
			<polygon fill="#223337" points="206.057,156.699 206.654,156.875 206.654,131.081 206.057,131.198 			"/>
			<polygon fill="#223337" points="207.067,156.995 207.684,157.177 207.684,130.876 207.067,130.998 			"/>
			<polygon fill="#223337" points="208.115,157.302 208.757,157.489 208.757,130.662 208.115,130.79 			"/>
			<polygon fill="#223337" points="209.202,157.624 209.873,157.819 209.873,130.44 209.202,130.577 			"/>
			<polygon fill="#223337" points="210.338,157.955 211.037,158.159 211.037,130.213 210.338,130.351 			"/>
			<polygon fill="#223337" points="211.517,158.302 212.248,158.519 212.248,129.972 211.517,130.115 			"/>
			<polygon fill="#223337" points="212.751,158.664 213.513,158.888 213.513,129.722 212.751,129.871 			"/>
			<polygon fill="#223337" points="214.041,159.042 214.838,159.275 214.838,129.458 214.041,129.617 			"/>
			<polygon fill="#223337" points="215.386,159.438 216.218,159.684 216.218,129.185 215.386,129.35 			"/>
			<polygon fill="#223337" points="216.797,159.851 217.664,160.107 217.664,128.898 216.797,129.07 			"/>
			<polygon fill="#223337" points="218.271,160.284 219.18,160.553 219.18,128.602 218.271,128.78 			"/>
		</g>
		<polygon fill="#820009" points="206.019,141.212 220.161,141.325 220.161,135.064 206.019,136.729 		"/>
		<polygon fill="#40210F" points="205.91,163.994 217.969,168.666 217.969,157.784 205.91,155.432 		"/>
	</g>
	<g>
		<rect x="228.213" y="70.796" fill="#314448" width="1.989" height="13.749"/>
		<rect x="231.551" y="70.796" fill="#314448" width="1.989" height="13.749"/>
		<rect x="234.891" y="70.796" fill="#314448" width="1.989" height="13.749"/>
		<rect x="238.229" y="70.796" fill="#314448" width="1.992" height="13.749"/>
		<rect x="241.565" y="70.796" fill="#314448" width="1.99" height="13.749"/>
		<rect x="244.906" y="70.796" fill="#314448" width="1.99" height="13.749"/>
		<rect x="248.244" y="70.796" fill="#314448" width="1.989" height="13.749"/>
		<rect x="251.584" y="70.796" fill="#314448" width="1.987" height="13.749"/>
		<rect x="254.925" y="70.796" fill="#314448" width="1.989" height="13.749"/>
		<rect x="258.263" y="70.796" fill="#314448" width="1.989" height="13.749"/>
		<rect x="261.603" y="70.796" fill="#314448" width="1.987" height="13.749"/>
		<rect x="264.94" y="70.796" fill="#314448" width="1.989" height="13.749"/>
	</g>
	<polygon fill="#A50319" points="285.511,72.734 60.659,72.734 68.616,64.086 277.554,64.086 	"/>
	<rect x="98.482" y="51.028" fill="#A50319" width="4.214" height="14.252"/>
	<rect x="242.444" y="50.153" fill="#A50319" width="4.214" height="15.781"/>
	<g>
		<g>
			<g>
				<rect x="68.644" y="59.588" fill="#C30D23" width="11.069" height="108.619"/>
				<rect x="68.083" y="154.373" fill="#231815" width="12.185" height="14.876"/>
			</g>
			<g>
				<rect x="71.73" y="51.308" fill="#C30D23" width="4.842" height="10.308"/>
				<path fill="#C30D23" d="M63.656,51.556h4.97c0,0-0.125,2.358-0.125,3.848c0,1.492,0.249,2.608,2.735,2.608
					c2.481,0,5.088,0,6.454,0c1.367,0,1.865-0.866,1.865-2.235c0-1.367,0-4.596,0-4.596h4.47c0,0,0,3.105,0,4.72
					s-0.246,5.34-2.979,5.34c-2.733,0-10.683,0-12.794,0c-2.109,0-4.717-1.116-4.717-4.221
					C63.535,53.914,63.656,51.556,63.656,51.556z"/>
				<rect x="62.54" y="49.566" fill="#C30D23" width="7.203" height="3.354"/>
				<rect x="70.486" y="49.566" fill="#C30D23" width="7.203" height="3.354"/>
				<rect x="78.436" y="49.566" fill="#C30D23" width="7.203" height="3.354"/>
			</g>
		</g>
		<rect x="70.974" y="65.589" fill="#FAEDB4" width="6.456" height="3.85"/>
	</g>
	<g>
		<g>
			<g>
				<rect x="120.307" y="59.588" fill="#C30D23" width="11.073" height="108.619"/>
				<rect x="119.747" y="154.373" fill="#231815" width="12.188" height="14.876"/>
			</g>
			<g>
				<rect x="123.395" y="51.308" fill="#C30D23" width="4.845" height="10.308"/>
				<path fill="#C30D23" d="M115.322,51.556h4.968c0,0-0.124,2.358-0.124,3.848c0,1.492,0.249,2.608,2.733,2.608s5.091,0,6.456,0
					c1.368,0,1.862-0.866,1.862-2.235c0-1.367,0-4.596,0-4.596h4.474c0,0,0,3.105,0,4.72s-0.249,5.34-2.982,5.34
					c-2.732,0-10.682,0-12.792,0c-2.112,0-4.719-1.116-4.719-4.221C115.199,53.914,115.322,51.556,115.322,51.556z"/>
				<rect x="114.203" y="49.566" fill="#C30D23" width="7.203" height="3.354"/>
				<rect x="122.152" y="49.566" fill="#C30D23" width="7.203" height="3.354"/>
				<rect x="130.103" y="49.566" fill="#C30D23" width="7.202" height="3.354"/>
			</g>
		</g>
		<rect x="122.638" y="65.589" fill="#FAEDB4" width="6.458" height="3.85"/>
	</g>
	<g>
		<rect x="48.031" y="153.214" fill="#40210F" width="74.116" height="1.823"/>
		<rect x="48.031" y="168.054" fill="#40210F" width="74.116" height="1.821"/>
		<rect x="48.445" y="157.399" fill="#40210F" width="73.288" height="0.995"/>
		<rect x="48.445" y="160.756" fill="#40210F" width="73.288" height="0.995"/>
		<g>
			<rect x="119.9" y="153.295" fill="#40210F" width="2.238" height="18.57"/>
			<polygon fill="#40210F" points="117.62,172.685 124.418,172.685 123.335,170.37 118.691,170.37 			"/>
		</g>
		<g>
			<rect x="102.407" y="153.295" fill="#40210F" width="2.238" height="16.498"/>
		</g>
		<g>
			<rect x="83.298" y="153.295" fill="#40210F" width="2.238" height="16.498"/>
		</g>
		<g>
			<rect x="64.189" y="153.295" fill="#40210F" width="2.237" height="16.498"/>
		</g>
		<g>
			<rect x="48.023" y="153.295" fill="#40210F" width="2.235" height="18.57"/>
			<polygon fill="#40210F" points="45.743,172.685 52.539,172.685 51.455,170.37 46.817,170.37 			"/>
		</g>
	</g>
	<rect x="221.134" y="82.208" fill="#C30D23" width="51.791" height="6.257"/>
	<g>
		<rect x="228.213" y="127.678" fill="#314448" width="1.989" height="34.239"/>
		<rect x="231.551" y="127.678" fill="#314448" width="1.989" height="34.239"/>
		<rect x="234.891" y="127.678" fill="#314448" width="1.989" height="34.239"/>
		<rect x="238.229" y="127.678" fill="#314448" width="1.992" height="34.239"/>
		<rect x="241.565" y="127.678" fill="#314448" width="1.99" height="34.239"/>
		<rect x="244.906" y="127.678" fill="#314448" width="1.99" height="34.239"/>
		<rect x="248.244" y="127.678" fill="#314448" width="1.989" height="34.239"/>
		<rect x="251.584" y="127.678" fill="#314448" width="1.987" height="34.239"/>
		<rect x="254.925" y="127.678" fill="#314448" width="1.989" height="34.239"/>
		<rect x="258.263" y="127.678" fill="#314448" width="1.989" height="34.239"/>
		<rect x="261.603" y="127.678" fill="#314448" width="1.987" height="34.239"/>
		<rect x="264.94" y="127.678" fill="#314448" width="1.989" height="34.239"/>
	</g>
	<rect x="221.134" y="134.852" fill="#C30D23" width="51.791" height="6.259"/>
	<rect x="221.134" y="160.384" fill="#C30D23" width="51.791" height="8.166"/>
	<g>
		<g>
			<g>
				<rect x="267.661" y="59.588" fill="#C30D23" width="11.074" height="108.619"/>
				<rect x="267.105" y="154.373" fill="#231815" width="12.188" height="14.876"/>
			</g>
			<g>
				<rect x="270.804" y="51.308" fill="#C30D23" width="4.842" height="10.308"/>
				<path fill="#C30D23" d="M283.719,51.556h-4.968c0,0,0.123,2.358,0.123,3.848c0,1.492-0.247,2.608-2.73,2.608
					c-2.484,0-5.094,0-6.46,0c-1.364,0-1.862-0.866-1.862-2.235c0-1.367,0-4.596,0-4.596h-4.473c0,0,0,3.105,0,4.72
					s0.25,5.34,2.981,5.34c2.73,0,10.683,0,12.795,0c2.109,0,4.716-1.116,4.716-4.221C283.841,53.914,283.719,51.556,283.719,51.556
					z"/>
				<rect x="277.635" y="49.566" fill="#C30D23" width="7.202" height="3.354"/>
				<rect x="269.684" y="49.566" fill="#C30D23" width="7.204" height="3.354"/>
				<rect x="261.734" y="49.566" fill="#C30D23" width="7.204" height="3.354"/>
			</g>
		</g>
		<rect x="269.943" y="65.589" fill="#FAEDB4" width="6.459" height="3.85"/>
	</g>
	<g>
		<g>
			<g>
				<rect x="215.996" y="59.588" fill="#C30D23" width="11.073" height="108.619"/>
				<rect x="215.441" y="154.373" fill="#231815" width="12.187" height="14.876"/>
			</g>
			<g>
				<rect x="219.138" y="51.308" fill="#C30D23" width="4.845" height="10.308"/>
				<path fill="#C30D23" d="M232.052,51.556h-4.968c0,0,0.125,2.358,0.125,3.848c0,1.492-0.251,2.608-2.731,2.608
					c-2.487,0-5.092,0-6.46,0c-1.367,0-1.861-0.866-1.861-2.235c0-1.367,0-4.596,0-4.596h-4.474c0,0,0,3.105,0,4.72
					s0.25,5.34,2.981,5.34c2.733,0,10.683,0,12.792,0c2.111,0,4.722-1.116,4.722-4.221
					C232.178,53.914,232.052,51.556,232.052,51.556z"/>
				<rect x="225.967" y="49.566" fill="#C30D23" width="7.204" height="3.354"/>
				<rect x="218.018" y="49.566" fill="#C30D23" width="7.207" height="3.354"/>
				<rect x="210.071" y="49.566" fill="#C30D23" width="7.202" height="3.354"/>
			</g>
		</g>
		<rect x="218.28" y="65.589" fill="#FAEDB4" width="6.456" height="3.85"/>
	</g>
	<g>
		<rect x="225.226" y="153.214" fill="#40210F" width="74.119" height="1.823"/>
		<rect x="225.226" y="168.054" fill="#40210F" width="74.119" height="1.821"/>
		<rect x="225.643" y="157.399" fill="#40210F" width="73.288" height="0.995"/>
		<rect x="225.643" y="160.756" fill="#40210F" width="73.288" height="0.995"/>
		<g>
			<rect x="225.238" y="153.295" fill="#40210F" width="2.238" height="18.57"/>
			<polygon fill="#40210F" points="229.757,172.685 222.96,172.685 224.042,170.37 228.684,170.37 			"/>
		</g>
		<g>
			<rect x="242.731" y="153.295" fill="#40210F" width="2.238" height="16.498"/>
		</g>
		<g>
			<rect x="261.841" y="153.295" fill="#40210F" width="2.237" height="16.498"/>
		</g>
		<g>
			<rect x="280.95" y="153.295" fill="#40210F" width="2.237" height="16.498"/>
		</g>
		<g>
			<rect x="297.115" y="153.295" fill="#40210F" width="2.238" height="18.57"/>
			<polygon fill="#40210F" points="301.63,172.685 294.835,172.685 295.919,170.37 300.56,170.37 			"/>
		</g>
	</g>
	<g>
		<linearGradient id="SVGID_1_" gradientUnits="userSpaceOnUse" x1="150.9893" y1="58.4971" x2="193.9883" y2="58.4971">
			<stop  offset="0" style="stop-color:#B1742E"/>
			<stop  offset="0.4148" style="stop-color:#CEA778"/>
			<stop  offset="0.6987" style="stop-color:#B1742E"/>
			<stop  offset="1" style="stop-color:#B1742E"/>
		</linearGradient>
		<rect x="150.989" y="49.876" fill="url(#SVGID_1_)" width="42.999" height="17.242"/>
		<rect x="152.518" y="51.187" fill="#231815" width="39.946" height="14.623"/>
	</g>
</g>
</svg>
